<svg width="75" height="75" viewBox="0 0 75 75" fill="none" xmlns="http://www.w3.org/2000/svg">
<path d="M23.0876 0.547656C23.0876 0.403096 23.0302 0.264457 22.9279 0.162238C22.8257 0.0600194 22.6871 0.00259333 22.5425 0.00259333H21.0677C20.9231 0.00259333 20.7845 0.0600194 20.6822 0.162238C20.58 0.264457 20.5226 0.403096 20.5226 0.547656V2.56759H23.0876V0.547656Z" fill="black"/>
<path d="M26.1977 0.00259333C26.0531 0.00259333 25.9145 0.0600194 25.8122 0.162238C25.71 0.264457 25.6526 0.403096 25.6526 0.547656V2.02253C25.6526 2.16709 25.71 2.30573 25.8122 2.40795C25.9145 2.51017 26.0531 2.56759 26.1977 2.56759H28.2176V0.00259333H26.1977Z" fill="black"/>
<path d="M30.2375 2.56759C30.3821 2.56759 30.5207 2.51017 30.6229 2.40795C30.7252 2.30573 30.7826 2.16709 30.7826 2.02253V0.547656C30.7826 0.403096 30.7252 0.264457 30.6229 0.162238C30.5207 0.0600194 30.3821 0.00259333 30.2375 0.00259333H28.2176V2.56759H30.2375Z" fill="black"/>
<path d="M33.8927 0.00259333C33.7481 0.00259333 33.6095 0.0600194 33.5072 0.162238C33.405 0.264457 33.3476 0.403096 33.3476 0.547656V2.02253C33.3476 2.16709 33.405 2.30573 33.5072 2.40795C33.6095 2.51017 33.7481 2.56759 33.8927 2.56759H35.9126V0.00259333H33.8927Z" fill="black"/>
<path d="M37.9325 0.00259333C38.0771 0.00259333 38.2157 0.0600194 38.3179 0.162238C38.4202 0.264457 38.4776 0.403096 38.4776 0.547656V2.56759H35.9126V0.00259333H37.9325Z" fill="black"/>
<path d="M39.0227 2.56759C38.8781 2.56759 38.7395 2.51017 38.6372 2.40795C38.535 2.30573 38.4776 2.16709 38.4776 2.02253L38.4776 2.56759L39.0227 2.56759Z" fill="black"/>
<path d="M43.0625 0.00259333H41.5877C41.2866 0.00259333 41.0426 0.246626 41.0426 0.547656V2.02253C41.0426 2.32356 41.2866 2.56759 41.5877 2.56759H43.0625C43.3636 2.56759 43.6076 2.32356 43.6076 2.02253V0.547656C43.6076 0.246626 43.3636 0.00259333 43.0625 0.00259333Z" fill="black"/>
<path d="M48.1925 0.00259333H46.7177C46.4166 0.00259333 46.1726 0.246626 46.1726 0.547656V2.02253C46.1726 2.32356 46.4166 2.56759 46.7177 2.56759H48.1925C48.4936 2.56759 48.7376 2.32356 48.7376 2.02253V0.547656C48.7376 0.246626 48.4936 0.00259333 48.1925 0.00259333Z" fill="black"/>
<path d="M23.0876 2.56759H20.5226V5.13259H23.0876V2.56759Z" fill="black"/>
<path d="M23.6327 5.13259C23.4881 5.13259 23.3495 5.07517 23.2472 4.97295C23.145 4.87073 23.0876 4.73209 23.0876 4.58753V5.13259L23.6327 5.13259Z" fill="black"/>
<path d="M35.9126 3.11266V2.56759H35.3675C35.5121 2.56759 35.6507 2.62502 35.7529 2.72724C35.8552 2.82946 35.9126 2.9681 35.9126 3.11266Z" fill="black"/>
<path d="M35.9126 4.58753C35.9126 4.73209 35.97 4.87073 36.0722 4.97295C36.1745 5.07517 36.3131 5.13259 36.4577 5.13259H38.4776V2.56759H35.9126L35.9126 4.58753Z" fill="black"/>
<path d="M40.4975 5.13259C40.6421 5.13259 40.7807 5.07517 40.8829 4.97295C40.9852 4.87073 41.0426 4.73209 41.0426 4.58753V3.11266C41.0426 2.9681 40.9852 2.82946 40.8829 2.72724C40.7807 2.62502 40.6421 2.56759 40.4975 2.56759L38.4776 2.56759V5.13259H40.4975Z" fill="black"/>
<path d="M45.6275 2.56759H44.1527C43.8516 2.56759 43.6076 2.81163 43.6076 3.11266V4.58753C43.6076 4.88856 43.8516 5.13259 44.1527 5.13259H45.6275C45.9286 5.13259 46.1726 4.88856 46.1726 4.58753V3.11266C46.1726 2.81163 45.9286 2.56759 45.6275 2.56759Z" fill="black"/>
<path d="M50.7575 2.56759H49.2827C48.9816 2.56759 48.7376 2.81163 48.7376 3.11266V4.58753C48.7376 4.88856 48.9816 5.13259 49.2827 5.13259H50.7575C51.0586 5.13259 51.3026 4.88856 51.3026 4.58753V3.11266C51.3026 2.81163 51.0586 2.56759 50.7575 2.56759Z" fill="black"/>
<path d="M20.5226 7.15253C20.5226 7.29709 20.58 7.43573 20.6822 7.53795C20.7845 7.64017 20.9231 7.69759 21.0677 7.69759H23.0876V5.13259H20.5226V7.15253Z" fill="black"/>
<path d="M25.1075 7.69759C25.2521 7.69759 25.3907 7.64017 25.4929 7.53795C25.5952 7.43573 25.6526 7.29709 25.6526 7.15253V5.67766C25.6526 5.5331 25.5952 5.39446 25.4929 5.29224C25.3907 5.19002 25.2521 5.13259 25.1075 5.13259L23.0876 5.13259V7.69759H25.1075Z" fill="black"/>
<path d="M30.2375 5.13259H28.7627C28.4616 5.13259 28.2176 5.37663 28.2176 5.67766V7.15253C28.2176 7.45356 28.4616 7.69759 28.7627 7.69759H30.2375C30.5386 7.69759 30.7826 7.45356 30.7826 7.15253V5.67766C30.7826 5.37663 30.5386 5.13259 30.2375 5.13259Z" fill="black"/>
<path d="M35.9126 7.15253V5.67766C35.9126 5.5331 35.8552 5.39446 35.7529 5.29224C35.6507 5.19002 35.5121 5.13259 35.3675 5.13259H33.8927C33.7481 5.13259 33.6095 5.19002 33.5072 5.29224C33.405 5.39446 33.3476 5.5331 33.3476 5.67766V7.69759H35.9126V7.15253Z" fill="black"/>
<path d="M36.4577 7.69759C36.3131 7.69759 36.1745 7.64017 36.0722 7.53795C35.97 7.43573 35.9126 7.29709 35.9126 7.15253V7.69759L36.4577 7.69759Z" fill="black"/>
<path d="M43.0625 5.13259H41.5877C41.2866 5.13259 41.0426 5.37663 41.0426 5.67766V7.15253C41.0426 7.45356 41.2866 7.69759 41.5877 7.69759H43.0625C43.3636 7.69759 43.6076 7.45356 43.6076 7.15253V5.67766C43.6076 5.37663 43.3636 5.13259 43.0625 5.13259Z" fill="black"/>
<path d="M53.8676 5.67766C53.8676 5.5331 53.8102 5.39446 53.7079 5.29224C53.6057 5.19002 53.4671 5.13259 53.3225 5.13259H51.8477C51.7031 5.13259 51.5645 5.19002 51.4622 5.29224C51.36 5.39446 51.3026 5.5331 51.3026 5.67766V7.69759H53.8676V5.67766Z" fill="black"/>
<path d="M28.2176 8.24266C28.2176 8.0981 28.1602 7.95946 28.0579 7.85724C27.9557 7.75502 27.8171 7.69759 27.6725 7.69759H26.1977C26.0531 7.69759 25.9145 7.75502 25.8122 7.85724C25.71 7.95946 25.6526 8.0981 25.6526 8.24266V10.2626H28.2176V8.24266Z" fill="black"/>
<path d="M33.3476 9.71753C33.3476 9.86209 33.405 10.0007 33.5072 10.1029C33.6095 10.2052 33.7481 10.2626 33.8927 10.2626H35.9126V7.69759H33.3476V9.71753Z" fill="black"/>
<path d="M38.4776 7.69759L35.9126 7.69759V10.2626H38.4776V7.69759Z" fill="black"/>
<path d="M40.4975 10.2626C40.6421 10.2626 40.7807 10.2052 40.8829 10.1029C40.9852 10.0007 41.0426 9.86209 41.0426 9.71753V8.24266C41.0426 8.0981 40.9852 7.95946 40.8829 7.85724C40.7807 7.75502 40.6421 7.69759 40.4975 7.69759H38.4776V10.2626H40.4975Z" fill="black"/>
<path d="M44.1527 7.69759C44.0081 7.69759 43.8695 7.75502 43.7672 7.85724C43.665 7.95946 43.6076 8.0981 43.6076 8.24266V9.71753C43.6076 9.86209 43.665 10.0007 43.7672 10.1029C43.8695 10.2052 44.0081 10.2626 44.1527 10.2626H46.1726V7.69759H44.1527Z" fill="black"/>
<path d="M48.1925 7.69759C48.3371 7.69759 48.4757 7.75502 48.5779 7.85724C48.6802 7.95946 48.7376 8.0981 48.7376 8.24266V10.2626H46.1726V7.69759H48.1925Z" fill="black"/>
<path d="M51.3026 9.71753C51.3026 9.86209 51.36 10.0007 51.4622 10.1029C51.5645 10.2052 51.7031 10.2626 51.8477 10.2626H53.3225C53.4671 10.2626 53.6057 10.2052 53.7079 10.1029C53.8102 10.0007 53.8676 9.86209 53.8676 9.71753V7.69759H51.3026V9.71753Z" fill="black"/>
<path d="M25.1075 12.8276C25.2521 12.8276 25.3907 12.7702 25.4929 12.6679C25.5952 12.5657 25.6526 12.4271 25.6526 12.2825V12.8276H25.1075Z" fill="black"/>
<path d="M28.2176 10.2626H25.6526L25.6526 12.8276L28.2176 12.8276V10.2626Z" fill="black"/>
<path d="M33.3476 12.2825V10.8077C33.3476 10.6631 33.2902 10.5245 33.1879 10.4222C33.0857 10.32 32.9471 10.2626 32.8025 10.2626H31.3277C31.1831 10.2626 31.0445 10.32 30.9422 10.4222C30.84 10.5245 30.7826 10.6631 30.7826 10.8077V12.8276H33.3476V12.2825Z" fill="black"/>
<path d="M33.8927 12.8276C33.7481 12.8276 33.6095 12.7702 33.5072 12.6679C33.405 12.5657 33.3476 12.4271 33.3476 12.2825V12.8276L33.8927 12.8276Z" fill="black"/>
<path d="M46.1726 10.8077V10.2626L45.6275 10.2626C45.7721 10.2626 45.9107 10.32 46.0129 10.4222C46.1152 10.5245 46.1726 10.6631 46.1726 10.8077Z" fill="black"/>
<path d="M48.7376 10.2626H46.1726L46.1726 12.8276H48.7376V10.2626Z" fill="black"/>
<path d="M21.0677 12.8276C20.9231 12.8276 20.7845 12.885 20.6822 12.9872C20.58 13.0895 20.5226 13.2281 20.5226 13.3727V15.3926H23.0876V12.8276H21.0677Z" fill="black"/>
<path d="M25.6526 12.8276L23.0876 12.8276V15.3926H25.6526L25.6526 12.8276Z" fill="black"/>
<path d="M28.2176 12.8276L25.6526 12.8276L25.6526 15.3926H28.2176V12.8276Z" fill="black"/>
<path d="M33.3476 12.8276H30.7826V15.3926H33.3476V12.8276Z" fill="black"/>
<path d="M33.8927 15.3926H35.3675C35.5121 15.3926 35.6507 15.3352 35.7529 15.2329C35.8552 15.1307 35.9126 14.9921 35.9126 14.8475V13.3727C35.9126 13.2281 35.8552 13.0895 35.7529 12.9872C35.6507 12.885 35.5121 12.8276 35.3675 12.8276H33.3476V15.3926H33.8927Z" fill="black"/>
<path d="M40.4975 12.8276H39.0227C38.7216 12.8276 38.4776 13.0716 38.4776 13.3727V14.8475C38.4776 15.1486 38.7216 15.3926 39.0227 15.3926H40.4975C40.7986 15.3926 41.0426 15.1486 41.0426 14.8475V13.3727C41.0426 13.0716 40.7986 12.8276 40.4975 12.8276Z" fill="black"/>
<path d="M48.7376 12.8276H46.1726V15.3926H48.7376V12.8276Z" fill="black"/>
<path d="M53.8676 13.3727C53.8676 13.2281 53.8102 13.0895 53.7079 12.9872C53.6057 12.885 53.4671 12.8276 53.3225 12.8276H51.8477C51.7031 12.8276 51.5645 12.885 51.4622 12.9872C51.36 13.0895 51.3026 13.2281 51.3026 13.3727V15.3926H53.8676V13.3727Z" fill="black"/>
<path d="M23.0876 15.3926H20.5226V17.9576H23.0876V15.3926Z" fill="black"/>
<path d="M23.6327 15.3926H23.0876V15.9377C23.0876 15.7931 23.145 15.6545 23.2472 15.5522C23.3495 15.45 23.4881 15.3926 23.6327 15.3926Z" fill="black"/>
<path d="M25.6526 15.9377L25.6526 15.3926H25.1075C25.2521 15.3926 25.3907 15.45 25.4929 15.5522C25.5952 15.6545 25.6526 15.7931 25.6526 15.9377Z" fill="black"/>
<path d="M28.2176 15.3926H25.6526L25.6526 17.9576H28.2176V15.3926Z" fill="black"/>
<path d="M30.7826 17.4125C30.7826 17.5571 30.84 17.6957 30.9422 17.7979C31.0445 17.9002 31.1831 17.9576 31.3277 17.9576H32.8025C32.9471 17.9576 33.0857 17.9002 33.1879 17.7979C33.2902 17.6957 33.3476 17.5571 33.3476 17.4125V15.3926H30.7826V17.4125Z" fill="black"/>
<path d="M33.8927 15.3926H33.3476L33.3476 15.9377C33.3476 15.7931 33.405 15.6545 33.5072 15.5522C33.6095 15.45 33.7481 15.3926 33.8927 15.3926Z" fill="black"/>
<path d="M38.4776 17.4125V15.9377C38.4776 15.7931 38.4202 15.6545 38.3179 15.5522C38.2157 15.45 38.0771 15.3926 37.9325 15.3926H36.4577C36.3131 15.3926 36.1745 15.45 36.0722 15.5522C35.97 15.6545 35.9126 15.7931 35.9126 15.9377V17.9576H38.4776V17.4125Z" fill="black"/>
<path d="M40.4975 17.9576C40.6421 17.9576 40.7807 17.9002 40.8829 17.7979C40.9852 17.6957 41.0426 17.5571 41.0426 17.4125V17.9576H40.4975Z" fill="black"/>
<path d="M39.0227 17.9576C38.8781 17.9576 38.7395 17.9002 38.6372 17.7979C38.535 17.6957 38.4776 17.5571 38.4776 17.4125V17.9576H39.0227Z" fill="black"/>
<path d="M43.6076 15.9377C43.6076 15.7931 43.5502 15.6545 43.4479 15.5522C43.3457 15.45 43.2071 15.3926 43.0625 15.3926H41.5877C41.4431 15.3926 41.3045 15.45 41.2022 15.5522C41.1 15.6545 41.0426 15.7931 41.0426 15.9377L41.0426 17.9576H43.6076V15.9377Z" fill="black"/>
<path d="M48.7376 15.3926H46.1726V17.9576H48.7376V15.3926Z" fill="black"/>
<path d="M50.7575 17.9576C50.9021 17.9576 51.0407 17.9002 51.1429 17.7979C51.2452 17.6957 51.3026 17.5571 51.3026 17.4125V17.9576H50.7575Z" fill="black"/>
<path d="M49.2827 17.9576C49.1381 17.9576 48.9995 17.9002 48.8972 17.7979C48.795 17.6957 48.7376 17.5571 48.7376 17.4125V17.9576H49.2827Z" fill="black"/>
<path d="M53.8676 15.3926H51.3026V17.9576H53.8676V15.3926Z" fill="black"/>
<path d="M23.0876 17.9576H20.5226V20.5226H23.0876V17.9576Z" fill="black"/>
<path d="M25.6526 19.9775C25.6526 20.1221 25.71 20.2607 25.8122 20.3629C25.9145 20.4652 26.0531 20.5226 26.1977 20.5226H27.6725C27.8171 20.5226 27.9557 20.4652 28.0579 20.3629C28.1602 20.2607 28.2176 20.1221 28.2176 19.9775V17.9576H25.6526V19.9775Z" fill="black"/>
<path d="M35.9126 19.9775C35.9126 20.1221 35.97 20.2607 36.0722 20.3629C36.1745 20.4652 36.3131 20.5226 36.4577 20.5226H38.4776V17.9576H35.9126V19.9775Z" fill="black"/>
<path d="M41.0426 17.9576H38.4776V20.5226H41.0426L41.0426 17.9576Z" fill="black"/>
<path d="M43.6076 19.9775C43.6076 20.1221 43.5502 20.2607 43.4479 20.3629C43.3457 20.4652 43.2071 20.5226 43.0625 20.5226H41.0426L41.0426 17.9576H43.6076V19.9775Z" fill="black"/>
<path d="M48.7376 17.9576H46.1726V20.5226H48.7376V17.9576Z" fill="black"/>
<path d="M51.3026 17.9576H48.7376V20.5226H51.3026V17.9576Z" fill="black"/>
<path d="M53.8676 19.9775C53.8676 20.1221 53.8102 20.2607 53.7079 20.3629C53.6057 20.4652 53.4671 20.5226 53.3225 20.5226H51.3026V17.9576H53.8676V19.9775Z" fill="black"/>
<path d="M5.67766 20.5226C5.5331 20.5226 5.39446 20.58 5.29224 20.6822C5.19002 20.7845 5.13259 20.9231 5.13259 21.0677V22.5425C5.13259 22.6871 5.19002 22.8257 5.29224 22.9279C5.39446 23.0302 5.5331 23.0876 5.67766 23.0876H7.69759V20.5226H5.67766Z" fill="black"/>
<path d="M10.2626 20.5226H7.69759V23.0876H10.2626V20.5226Z" fill="black"/>
<path d="M12.2825 20.5226C12.4271 20.5226 12.5657 20.58 12.6679 20.6822C12.7702 20.7845 12.8276 20.9231 12.8276 21.0677V23.0876H10.2626V20.5226H12.2825Z" fill="black"/>
<path d="M13.3727 23.0876C13.2281 23.0876 13.0895 23.0302 12.9872 22.9279C12.885 22.8257 12.8276 22.6871 12.8276 22.5425V23.0876L13.3727 23.0876Z" fill="black"/>
<path d="M17.4125 20.5226H15.9377C15.6366 20.5226 15.3926 20.7666 15.3926 21.0677V22.5425C15.3926 22.8436 15.6366 23.0876 15.9377 23.0876H17.4125C17.7136 23.0876 17.9576 22.8436 17.9576 22.5425V21.0677C17.9576 20.7666 17.7136 20.5226 17.4125 20.5226Z" fill="black"/>
<path d="M20.5226 22.5425C20.5226 22.6871 20.58 22.8257 20.6822 22.9279C20.7845 23.0302 20.9231 23.0876 21.0677 23.0876H22.5425C22.6871 23.0876 22.8257 23.0302 22.9279 22.9279C23.0302 22.8257 23.0876 22.6871 23.0876 22.5425V20.5226H20.5226V22.5425Z" fill="black"/>
<path d="M28.7627 20.5226C28.6181 20.5226 28.4795 20.58 28.3772 20.6822C28.275 20.7845 28.2176 20.9231 28.2176 21.0677V22.5425C28.2176 22.6871 28.275 22.8257 28.3772 22.9279C28.4795 23.0302 28.6181 23.0876 28.7627 23.0876H30.7826V20.5226H28.7627Z" fill="black"/>
<path d="M32.8025 23.0876C32.9471 23.0876 33.0857 23.0302 33.1879 22.9279C33.2902 22.8257 33.3476 22.6871 33.3476 22.5425V21.0677C33.3476 20.9231 33.2902 20.7845 33.1879 20.6822C33.0857 20.58 32.9471 20.5226 32.8025 20.5226H30.7826V23.0876H32.8025Z" fill="black"/>
<path d="M46.1726 22.5425C46.1726 22.6871 46.23 22.8257 46.3322 22.9279C46.4345 23.0302 46.5731 23.0876 46.7177 23.0876H48.1925C48.3371 23.0876 48.4757 23.0302 48.5779 22.9279C48.6802 22.8257 48.7376 22.6871 48.7376 22.5425V20.5226H46.1726V22.5425Z" fill="black"/>
<path d="M49.2827 20.5226L48.7376 20.5226V21.0677C48.7376 20.9231 48.795 20.7845 48.8972 20.6822C48.9995 20.58 49.1381 20.5226 49.2827 20.5226Z" fill="black"/>
<path d="M53.3225 23.0876C53.4671 23.0876 53.6057 23.0302 53.7079 22.9279C53.8102 22.8257 53.8676 22.6871 53.8676 22.5425V23.0876H53.3225Z" fill="black"/>
<path d="M54.4127 20.5226C54.2681 20.5226 54.1295 20.58 54.0272 20.6822C53.925 20.7845 53.8676 20.9231 53.8676 21.0677L53.8676 23.0876L56.4326 23.0876V20.5226H54.4127Z" fill="black"/>
<path d="M58.9976 20.5226H56.4326V23.0876H58.9976V20.5226Z" fill="black"/>
<path d="M59.5427 23.0876H61.0175C61.1621 23.0876 61.3007 23.0302 61.4029 22.9279C61.5052 22.8257 61.5626 22.6871 61.5626 22.5425V21.0677C61.5626 20.9231 61.5052 20.7845 61.4029 20.6822C61.3007 20.58 61.1621 20.5226 61.0175 20.5226H58.9976V23.0876H59.5427Z" fill="black"/>
<path d="M67.2377 20.5226C67.0931 20.5226 66.9545 20.58 66.8522 20.6822C66.75 20.7845 66.6926 20.9231 66.6926 21.0677V22.5425C66.6926 22.6871 66.75 22.8257 66.8522 22.9279C66.9545 23.0302 67.0931 23.0876 67.2377 23.0876H69.2576V20.5226H67.2377Z" fill="black"/>
<path d="M71.8226 20.5226H69.2576V23.0876H71.8226V20.5226Z" fill="black"/>
<path d="M73.8425 20.5226C73.9871 20.5226 74.1257 20.58 74.2279 20.6822C74.3302 20.7845 74.3876 20.9231 74.3876 21.0677V23.0876H71.8226V20.5226H73.8425Z" fill="black"/>
<path d="M2.02253 23.0876H0.547656C0.246626 23.0876 0.00259333 23.3316 0.00259333 23.6327V25.1075C0.00259333 25.4086 0.246626 25.6526 0.547656 25.6526H2.02253C2.32356 25.6526 2.56759 25.4086 2.56759 25.1075V23.6327C2.56759 23.3316 2.32356 23.0876 2.02253 23.0876Z" fill="black"/>
<path d="M10.2626 23.6327L10.2626 23.0876H9.71753C9.86209 23.0876 10.0007 23.145 10.1029 23.2472C10.2052 23.3495 10.2626 23.4881 10.2626 23.6327Z" fill="black"/>
<path d="M9.71753 25.6526C9.86209 25.6526 10.0007 25.5952 10.1029 25.4929C10.2052 25.3907 10.2626 25.2521 10.2626 25.1075V25.6526H9.71753Z" fill="black"/>
<path d="M12.8276 23.0876H10.2626L10.2626 25.6526L12.8276 25.6526V23.0876Z" fill="black"/>
<path d="M14.8475 23.0876C14.9921 23.0876 15.1307 23.145 15.2329 23.2472C15.3352 23.3495 15.3926 23.4881 15.3926 23.6327V25.6526H12.8276V23.0876H14.8475Z" fill="black"/>
<path d="M15.9377 25.6526C15.7931 25.6526 15.6545 25.5952 15.5522 25.4929C15.45 25.3907 15.3926 25.2521 15.3926 25.1075V25.6526L15.9377 25.6526Z" fill="black"/>
<path d="M53.3225 23.0876L51.8477 23.0876C51.7031 23.0876 51.5645 23.145 51.4622 23.2472C51.36 23.3495 51.3026 23.4881 51.3026 23.6327V25.1075C51.3026 25.2521 51.36 25.3907 51.4622 25.4929C51.5645 25.5952 51.7031 25.6526 51.8477 25.6526H53.8676L53.8676 23.0876H53.3225Z" fill="black"/>
<path d="M56.4326 23.0876L53.8676 23.0876L53.8676 25.6526H56.4326V23.0876Z" fill="black"/>
<path d="M58.9976 25.1075C58.9976 25.2521 58.9402 25.3907 58.838 25.4929C58.7357 25.5952 58.5971 25.6526 58.4525 25.6526H56.4326V23.0876H58.9976V25.1075Z" fill="black"/>
<path d="M59.5427 23.0876H58.9976L58.9976 23.6327C58.9976 23.4881 59.055 23.3495 59.1572 23.2472C59.2595 23.145 59.3981 23.0876 59.5427 23.0876Z" fill="black"/>
<path d="M63.5825 23.0876H62.1077C61.8066 23.0876 61.5626 23.3316 61.5626 23.6327V25.1075C61.5626 25.4086 61.8066 25.6526 62.1077 25.6526H63.5825C63.8836 25.6526 64.1276 25.4086 64.1276 25.1075V23.6327C64.1276 23.3316 63.8836 23.0876 63.5825 23.0876Z" fill="black"/>
<path d="M69.2576 23.6327V23.0876H68.7125C68.8571 23.0876 68.9957 23.145 69.098 23.2472C69.2002 23.3495 69.2576 23.4881 69.2576 23.6327Z" fill="black"/>
<path d="M69.2576 25.1075C69.2576 25.2521 69.315 25.3907 69.4172 25.4929C69.5194 25.5952 69.6581 25.6526 69.8027 25.6526H71.8226V23.0876H69.2576L69.2576 25.1075Z" fill="black"/>
<path d="M74.3876 25.1075C74.3876 25.2521 74.3302 25.3907 74.2279 25.4929C74.1257 25.5952 73.9871 25.6526 73.8425 25.6526H71.8226V23.0876H74.3876V25.1075Z" fill="black"/>
<path d="M3.11266 25.6526C2.9681 25.6526 2.82946 25.71 2.72724 25.8122C2.62502 25.9145 2.56759 26.0531 2.56759 26.1977V27.6725C2.56759 27.8171 2.62502 27.9557 2.72724 28.0579C2.82946 28.1602 2.9681 28.2176 3.11266 28.2176H5.13259V25.6526H3.11266Z" fill="black"/>
<path d="M7.69759 25.6526H5.13259V28.2176H7.69759V25.6526Z" fill="black"/>
<path d="M10.2626 25.6526L7.69759 25.6526V28.2176H10.2626L10.2626 25.6526Z" fill="black"/>
<path d="M12.8276 25.6526L10.2626 25.6526L10.2626 28.2176H12.8276V25.6526Z" fill="black"/>
<path d="M15.3926 25.6526H12.8276V28.2176H15.3926V25.6526Z" fill="black"/>
<path d="M17.9576 25.6526L15.3926 25.6526V28.2176H17.9576V25.6526Z" fill="black"/>
<path d="M19.9775 25.6526C20.1221 25.6526 20.2607 25.71 20.3629 25.8122C20.4652 25.9145 20.5226 26.0531 20.5226 26.1977V28.2176H17.9576V25.6526H19.9775Z" fill="black"/>
<path d="M21.0677 28.2176C20.9231 28.2176 20.7845 28.1602 20.6822 28.0579C20.58 27.9557 20.5226 27.8171 20.5226 27.6725L20.5226 28.2176H21.0677Z" fill="black"/>
<path d="M66.1475 28.2176C66.2921 28.2176 66.4307 28.1602 66.5329 28.0579C66.6352 27.9557 66.6926 27.8171 66.6926 27.6725V28.2176H66.1475Z" fill="black"/>
<path d="M69.2576 26.1977C69.2576 26.0531 69.2002 25.9145 69.098 25.8122C68.9957 25.71 68.8571 25.6526 68.7125 25.6526H67.2377C67.0931 25.6526 66.9545 25.71 66.8522 25.8122C66.75 25.9145 66.6926 26.0531 66.6926 26.1977L66.6926 28.2176H69.2576V26.1977Z" fill="black"/>
<path d="M7.69759 28.7627L7.69759 28.2176H7.15253C7.29709 28.2176 7.43573 28.275 7.53795 28.3772C7.64017 28.4795 7.69759 28.6181 7.69759 28.7627Z" fill="black"/>
<path d="M7.69759 30.2375C7.69759 30.3821 7.75502 30.5207 7.85724 30.6229C7.95946 30.7252 8.0981 30.7826 8.24266 30.7826H10.2626V28.2176H7.69759L7.69759 30.2375Z" fill="black"/>
<path d="M12.8276 28.2176H10.2626V30.7826H12.8276V28.2176Z" fill="black"/>
<path d="M15.3926 28.2176H12.8276V30.7826H15.3926V28.2176Z" fill="black"/>
<path d="M15.9377 28.2176H15.3926V28.7627C15.3926 28.6181 15.45 28.4795 15.5522 28.3772C15.6545 28.275 15.7931 28.2176 15.9377 28.2176Z" fill="black"/>
<path d="M17.9576 28.7627V28.2176H17.4125C17.5571 28.2176 17.6957 28.275 17.7979 28.3772C17.9002 28.4795 17.9576 28.6181 17.9576 28.7627Z" fill="black"/>
<path d="M17.4125 30.7826C17.5571 30.7826 17.6957 30.7252 17.7979 30.6229C17.9002 30.5207 17.9576 30.3821 17.9576 30.2375V30.7826H17.4125Z" fill="black"/>
<path d="M15.9377 30.7826C15.7931 30.7826 15.6545 30.7252 15.5522 30.6229C15.45 30.5207 15.3926 30.3821 15.3926 30.2375V30.7826L15.9377 30.7826Z" fill="black"/>
<path d="M20.5226 28.2176H17.9576V30.7826L20.5226 30.7826V28.2176Z" fill="black"/>
<path d="M21.0677 30.7826H22.5425C22.6871 30.7826 22.8257 30.7252 22.9279 30.6229C23.0302 30.5207 23.0876 30.3821 23.0876 30.2375V28.7627C23.0876 28.6181 23.0302 28.4795 22.9279 28.3772C22.8257 28.275 22.6871 28.2176 22.5425 28.2176H20.5226V30.7826H21.0677Z" fill="black"/>
<path d="M53.8676 30.2375V28.7627C53.8676 28.6181 53.8102 28.4795 53.7079 28.3772C53.6057 28.275 53.4671 28.2176 53.3225 28.2176H51.8477C51.7031 28.2176 51.5645 28.275 51.4622 28.3772C51.36 28.4795 51.3026 28.6181 51.3026 28.7627V30.7826H53.8676V30.2375Z" fill="black"/>
<path d="M54.4127 30.7826C54.2681 30.7826 54.1295 30.7252 54.0272 30.6229C53.925 30.5207 53.8676 30.3821 53.8676 30.2375V30.7826L54.4127 30.7826Z" fill="black"/>
<path d="M56.9777 28.2176C56.8331 28.2176 56.6945 28.275 56.5922 28.3772C56.49 28.4795 56.4326 28.6181 56.4326 28.7627V30.2375C56.4326 30.3821 56.49 30.5207 56.5922 30.6229C56.6945 30.7252 56.8331 30.7826 56.9777 30.7826H58.9976V28.2176H56.9777Z" fill="black"/>
<path d="M61.5626 28.2176H58.9976V30.7826H61.5626V28.2176Z" fill="black"/>
<path d="M64.1276 28.2176H61.5626V30.7826H64.1276V28.2176Z" fill="black"/>
<path d="M66.6926 28.2176H64.1276V30.7826H66.6926V28.2176Z" fill="black"/>
<path d="M69.2576 28.2176H66.6926V30.7826H69.2576V28.2176Z" fill="black"/>
<path d="M69.8027 30.7826C69.6581 30.7826 69.5195 30.7252 69.4172 30.6229C69.315 30.5207 69.2576 30.3821 69.2576 30.2375L69.2576 30.7826L69.8027 30.7826Z" fill="black"/>
<path d="M0.547656 30.7826C0.403096 30.7826 0.264457 30.84 0.162238 30.9422C0.0600194 31.0445 0.00259333 31.1831 0.00259333 31.3277V33.3476H2.56759V30.7826H0.547656Z" fill="black"/>
<path d="M5.13259 30.7826H2.56759V33.3476H5.13259V30.7826Z" fill="black"/>
<path d="M7.15253 33.3476C7.29709 33.3476 7.43573 33.2902 7.53795 33.1879C7.64017 33.0857 7.69759 32.9471 7.69759 32.8025V31.3277C7.69759 31.1831 7.64017 31.0445 7.53795 30.9422C7.43573 30.84 7.29709 30.7826 7.15253 30.7826H5.13259V33.3476H7.15253Z" fill="black"/>
<path d="M12.8276 31.3277L12.8276 30.7826H12.2825C12.4271 30.7826 12.5657 30.84 12.6679 30.9422C12.7702 31.0445 12.8276 31.1831 12.8276 31.3277Z" fill="black"/>
<path d="M12.8276 32.8025C12.8276 32.9471 12.885 33.0857 12.9872 33.1879C13.0895 33.2902 13.2281 33.3476 13.3727 33.3476H15.3926V30.7826H12.8276V32.8025Z" fill="black"/>
<path d="M17.9576 30.7826L15.3926 30.7826V33.3476H17.9576V30.7826Z" fill="black"/>
<path d="M20.5226 30.7826L17.9576 30.7826V33.3476H20.5226V30.7826Z" fill="black"/>
<path d="M21.0677 30.7826H20.5226L20.5226 31.3277C20.5226 31.1831 20.58 31.0445 20.6822 30.9422C20.7845 30.84 20.9231 30.7826 21.0677 30.7826Z" fill="black"/>
<path d="M21.0677 33.3476C20.9231 33.3476 20.7845 33.2902 20.6822 33.188C20.58 33.0857 20.5226 32.9471 20.5226 32.8025L20.5226 33.3476L21.0677 33.3476Z" fill="black"/>
<path d="M53.8676 30.7826H51.3026V33.3476H53.8676V30.7826Z" fill="black"/>
<path d="M54.4127 33.3476H55.8875C56.0321 33.3476 56.1707 33.2902 56.2729 33.1879C56.3752 33.0857 56.4326 32.9471 56.4326 32.8025V31.3277C56.4326 31.1831 56.3752 31.0445 56.2729 30.9422C56.1707 30.84 56.0321 30.7826 55.8875 30.7826H53.8676V33.3476H54.4127Z" fill="black"/>
<path d="M61.5626 31.3277V30.7826H61.0175C61.1621 30.7826 61.3007 30.84 61.4029 30.9422C61.5052 31.0445 61.5626 31.1831 61.5626 31.3277Z" fill="black"/>
<path d="M64.1276 30.7826H61.5626L61.5626 33.3476H64.1276V30.7826Z" fill="black"/>
<path d="M64.6727 30.7826H64.1276L64.1276 31.3277C64.1276 31.1831 64.185 31.0445 64.2872 30.9422C64.3895 30.84 64.5281 30.7826 64.6727 30.7826Z" fill="black"/>
<path d="M66.6926 31.3277V30.7826H66.1475C66.2921 30.7826 66.4307 30.84 66.5329 30.9422C66.6352 31.0445 66.6926 31.1831 66.6926 31.3277Z" fill="black"/>
<path d="M64.6727 33.3476C64.5281 33.3476 64.3895 33.2902 64.2872 33.188C64.185 33.0857 64.1276 32.9471 64.1276 32.8025L64.1276 33.3476L64.6727 33.3476Z" fill="black"/>
<path d="M66.6926 32.8025C66.6926 32.9471 66.75 33.0857 66.8522 33.1879C66.9545 33.2902 67.0931 33.3476 67.2377 33.3476H69.2576V30.7826H66.6926L66.6926 32.8025Z" fill="black"/>
<path d="M71.2775 33.3476C71.4221 33.3476 71.5607 33.2902 71.6629 33.1879C71.7652 33.0857 71.8226 32.9471 71.8226 32.8025V31.3277C71.8226 31.1831 71.7652 31.0445 71.6629 30.9422C71.5607 30.84 71.4221 30.7826 71.2775 30.7826H69.2576V33.3476H71.2775Z" fill="black"/>
<path d="M0.00259333 35.3675C0.00259333 35.5121 0.0600194 35.6507 0.162238 35.7529C0.264457 35.8552 0.403096 35.9126 0.547656 35.9126H2.02253C2.16709 35.9126 2.30573 35.8552 2.40795 35.7529C2.51017 35.6507 2.56759 35.5121 2.56759 35.3675V33.3476H0.00259333V35.3675Z" fill="black"/>
<path d="M3.11266 33.3476L2.56759 33.3476L2.56759 33.8927C2.56759 33.7481 2.62502 33.6095 2.72724 33.5072C2.82946 33.405 2.9681 33.3476 3.11266 33.3476Z" fill="black"/>
<path d="M12.2825 33.3476H10.8077C10.5066 33.3476 10.2626 33.5916 10.2626 33.8927V35.3675C10.2626 35.6686 10.5066 35.9126 10.8077 35.9126H12.2825C12.5836 35.9126 12.8276 35.6686 12.8276 35.3675V33.8927C12.8276 33.5916 12.5836 33.3476 12.2825 33.3476Z" fill="black"/>
<path d="M17.9576 33.8927V33.3476L17.4125 33.3476C17.5571 33.3476 17.6957 33.405 17.7979 33.5072C17.9002 33.6095 17.9576 33.7481 17.9576 33.8927Z" fill="black"/>
<path d="M17.4125 35.9126C17.5571 35.9126 17.6957 35.8552 17.7979 35.7529C17.9002 35.6507 17.9576 35.5121 17.9576 35.3675V35.9126H17.4125Z" fill="black"/>
<path d="M20.5226 33.3476H17.9576V35.9126H20.5226V33.3476Z" fill="black"/>
<path d="M22.5425 33.3476C22.6871 33.3476 22.8257 33.405 22.9279 33.5072C23.0302 33.6095 23.0876 33.7481 23.0876 33.8927V35.9126H20.5226V33.3476L22.5425 33.3476Z" fill="black"/>
<path d="M51.3026 35.3675C51.3026 35.5121 51.36 35.6507 51.4622 35.7529C51.5645 35.8552 51.7031 35.9126 51.8477 35.9126H53.3225C53.4671 35.9126 53.6057 35.8552 53.7079 35.7529C53.8102 35.6507 53.8676 35.5121 53.8676 35.3675V33.3476H51.3026V35.3675Z" fill="black"/>
<path d="M54.4127 33.3476H53.8676L53.8676 33.8927C53.8676 33.7481 53.925 33.6095 54.0272 33.5072C54.1295 33.405 54.2681 33.3476 54.4127 33.3476Z" fill="black"/>
<path d="M58.4525 33.3476H56.9777C56.6766 33.3476 56.4326 33.5916 56.4326 33.8927V35.3675C56.4326 35.6686 56.6766 35.9126 56.9777 35.9126H58.4525C58.7536 35.9126 58.9976 35.6686 58.9976 35.3675V33.8927C58.9976 33.5916 58.7536 33.3476 58.4525 33.3476Z" fill="black"/>
<path d="M61.5626 35.3675C61.5626 35.5121 61.62 35.6507 61.7222 35.7529C61.8245 35.8552 61.9631 35.9126 62.1077 35.9126H64.1276V33.3476H61.5626V35.3675Z" fill="black"/>
<path d="M66.1475 35.9126C66.2921 35.9126 66.4307 35.8552 66.5329 35.7529C66.6352 35.6507 66.6926 35.5121 66.6926 35.3675V33.8927C66.6926 33.7481 66.6352 33.6095 66.5329 33.5072C66.4307 33.405 66.2921 33.3476 66.1475 33.3476L64.1276 33.3476V35.9126H66.1475Z" fill="black"/>
<path d="M74.3876 33.8927C74.3876 33.7481 74.3302 33.6095 74.2279 33.5072C74.1257 33.405 73.9871 33.3476 73.8425 33.3476H72.3677C72.2231 33.3476 72.0845 33.405 71.9822 33.5072C71.88 33.6095 71.8226 33.7481 71.8226 33.8927V35.9126H74.3876V33.8927Z" fill="black"/>
<path d="M9.71753 35.9126H8.24266C7.94163 35.9126 7.69759 36.1566 7.69759 36.4577V37.9325C7.69759 38.2336 7.94163 38.4776 8.24266 38.4776H9.71753C10.0186 38.4776 10.2626 38.2336 10.2626 37.9325V36.4577C10.2626 36.1566 10.0186 35.9126 9.71753 35.9126Z" fill="black"/>
<path d="M17.4125 35.9126L15.9377 35.9126C15.7931 35.9126 15.6545 35.97 15.5522 36.0722C15.45 36.1745 15.3926 36.3131 15.3926 36.4577V37.9325C15.3926 38.0771 15.45 38.2157 15.5522 38.3179C15.6545 38.4202 15.7931 38.4776 15.9377 38.4776H17.9576V35.9126H17.4125Z" fill="black"/>
<path d="M20.5226 35.9126H17.9576V38.4776H20.5226V35.9126Z" fill="black"/>
<path d="M23.0876 37.9325C23.0876 38.0771 23.0302 38.2157 22.9279 38.3179C22.8257 38.4202 22.6871 38.4776 22.5425 38.4776H20.5226V35.9126H23.0876V37.9325Z" fill="black"/>
<path d="M58.4525 38.4776C58.5971 38.4776 58.7357 38.4202 58.838 38.3179C58.9402 38.2157 58.9976 38.0771 58.9976 37.9325V38.4776H58.4525Z" fill="black"/>
<path d="M61.5626 37.9325V36.4577C61.5626 36.3131 61.5052 36.1745 61.4029 36.0722C61.3007 35.97 61.1621 35.9126 61.0175 35.9126H59.5427C59.3981 35.9126 59.2595 35.97 59.1572 36.0722C59.055 36.1745 58.9976 36.3131 58.9976 36.4577L58.9976 38.4776H61.5626V37.9325Z" fill="black"/>
<path d="M62.1077 38.4776C61.9631 38.4776 61.8245 38.4202 61.7222 38.3179C61.62 38.2157 61.5626 38.0771 61.5626 37.9325V38.4776H62.1077Z" fill="black"/>
<path d="M69.2576 37.9325V36.4577C69.2576 36.3131 69.2002 36.1745 69.098 36.0722C68.9957 35.97 68.8571 35.9126 68.7125 35.9126H67.2377C67.0931 35.9126 66.9545 35.97 66.8522 36.0722C66.75 36.1745 66.6926 36.3131 66.6926 36.4577V38.4776H69.2576V37.9325Z" fill="black"/>
<path d="M71.2775 38.4776C71.4221 38.4776 71.5607 38.4202 71.6629 38.3179C71.7652 38.2157 71.8226 38.0771 71.8226 37.9325V38.4776H71.2775Z" fill="black"/>
<path d="M69.8027 38.4776C69.6581 38.4776 69.5195 38.4202 69.4172 38.3179C69.315 38.2157 69.2576 38.0771 69.2576 37.9325V38.4776H69.8027Z" fill="black"/>
<path d="M74.3876 35.9126H71.8226V38.4776H74.3876V35.9126Z" fill="black"/>
<path d="M0.547656 38.4776C0.403096 38.4776 0.264457 38.535 0.162238 38.6372C0.0600194 38.7395 0.00259333 38.8781 0.00259333 39.0227V40.4975C0.00259333 40.6421 0.0600194 40.7807 0.162238 40.8829C0.264457 40.9852 0.403096 41.0426 0.547656 41.0426H2.56759V38.4776H0.547656Z" fill="black"/>
<path d="M5.13259 38.4776H2.56759V41.0426H5.13259V38.4776Z" fill="black"/>
<path d="M5.67766 41.0426H7.15253C7.29709 41.0426 7.43573 40.9852 7.53795 40.8829C7.64017 40.7807 7.69759 40.6421 7.69759 40.4975V39.0227C7.69759 38.8781 7.64017 38.7395 7.53795 38.6372C7.43573 38.535 7.29709 38.4776 7.15253 38.4776H5.13259V41.0426H5.67766Z" fill="black"/>
<path d="M12.8276 40.4975V39.0227C12.8276 38.8781 12.7702 38.7395 12.6679 38.6372C12.5657 38.535 12.4271 38.4776 12.2825 38.4776H10.8077C10.6631 38.4776 10.5245 38.535 10.4222 38.6372C10.32 38.7395 10.2626 38.8781 10.2626 39.0227V41.0426H12.8276V40.4975Z" fill="black"/>
<path d="M13.3727 41.0426C13.2281 41.0426 13.0895 40.9852 12.9872 40.8829C12.885 40.7807 12.8276 40.6421 12.8276 40.4975V41.0426L13.3727 41.0426Z" fill="black"/>
<path d="M17.9576 39.0227V38.4776L17.4125 38.4776C17.5571 38.4776 17.6957 38.535 17.7979 38.6372C17.9002 38.7395 17.9576 38.8781 17.9576 39.0227Z" fill="black"/>
<path d="M17.4125 41.0426C17.5571 41.0426 17.6957 40.9852 17.7979 40.8829C17.9002 40.7807 17.9576 40.6421 17.9576 40.4975V41.0426H17.4125Z" fill="black"/>
<path d="M20.5226 38.4776H17.9576V41.0426L20.5226 41.0426V38.4776Z" fill="black"/>
<path d="M21.0677 38.4776L20.5226 38.4776L20.5226 39.0227C20.5226 38.8781 20.58 38.7395 20.6822 38.6372C20.7845 38.535 20.9231 38.4776 21.0677 38.4776Z" fill="black"/>
<path d="M21.0677 41.0426C20.9231 41.0426 20.7845 40.9852 20.6822 40.8829C20.58 40.7807 20.5226 40.6421 20.5226 40.4975L20.5226 41.0426L21.0677 41.0426Z" fill="black"/>
<path d="M54.4127 38.4776C54.2681 38.4776 54.1295 38.535 54.0272 38.6372C53.925 38.7395 53.8676 38.8781 53.8676 39.0227V40.4975C53.8676 40.6421 53.925 40.7807 54.0272 40.8829C54.1295 40.9852 54.2681 41.0426 54.4127 41.0426H56.4326V38.4776H54.4127Z" fill="black"/>
<path d="M58.9976 38.4776L56.4326 38.4776V41.0426H58.9976V38.4776Z" fill="black"/>
<path d="M61.5626 38.4776H58.9976V41.0426H61.5626V38.4776Z" fill="black"/>
<path d="M62.1077 41.0426H63.5825C63.7271 41.0426 63.8657 40.9852 63.9679 40.8829C64.0702 40.7807 64.1276 40.6421 64.1276 40.4975V39.0227C64.1276 38.8781 64.0702 38.7395 63.9679 38.6372C63.8657 38.535 63.7271 38.4776 63.5825 38.4776L61.5626 38.4776V41.0426H62.1077Z" fill="black"/>
<path d="M66.6926 40.4975C66.6926 40.6421 66.75 40.7807 66.8522 40.8829C66.9545 40.9852 67.0931 41.0426 67.2377 41.0426H69.2576V38.4776H66.6926V40.4975Z" fill="black"/>
<path d="M71.8226 38.4776H69.2576V41.0426H71.8226V38.4776Z" fill="black"/>
<path d="M74.3876 40.4975C74.3876 40.6421 74.3302 40.7807 74.2279 40.8829C74.1257 40.9852 73.9871 41.0426 73.8425 41.0426H71.8226V38.4776H74.3876V40.4975Z" fill="black"/>
<path d="M2.56759 41.5877L2.56759 41.0426H2.02253C2.16709 41.0426 2.30573 41.1 2.40795 41.2022C2.51017 41.3045 2.56759 41.4431 2.56759 41.5877Z" fill="black"/>
<path d="M2.56759 43.0625C2.56759 43.2071 2.62502 43.3457 2.72724 43.4479C2.82946 43.5502 2.9681 43.6076 3.11266 43.6076H4.58753C4.73209 43.6076 4.87073 43.5502 4.97295 43.4479C5.07517 43.3457 5.13259 43.2071 5.13259 43.0625V41.0426H2.56759L2.56759 43.0625Z" fill="black"/>
<path d="M5.67766 41.0426H5.13259L5.13259 41.5877C5.13259 41.4431 5.19002 41.3045 5.29224 41.2022C5.39446 41.1 5.5331 41.0426 5.67766 41.0426Z" fill="black"/>
<path d="M10.2626 43.0625C10.2626 43.2071 10.32 43.3457 10.4222 43.4479C10.5245 43.5502 10.6631 43.6076 10.8077 43.6076H12.8276V41.0426H10.2626V43.0625Z" fill="black"/>
<path d="M15.3926 41.0426H12.8276V43.6076H15.3926V41.0426Z" fill="black"/>
<path d="M17.9576 41.0426L15.3926 41.0426V43.6076H17.9576V41.0426Z" fill="black"/>
<path d="M20.5226 41.0426L17.9576 41.0426V43.6076H20.5226V41.0426Z" fill="black"/>
<path d="M21.0677 43.6076H22.5425C22.6871 43.6076 22.8257 43.5502 22.9279 43.4479C23.0302 43.3457 23.0876 43.2071 23.0876 43.0625V41.5877C23.0876 41.4431 23.0302 41.3045 22.9279 41.2022C22.8257 41.1 22.6871 41.0426 22.5425 41.0426H20.5226V43.6076H21.0677Z" fill="black"/>
<path d="M53.3225 41.0426H51.8477C51.5466 41.0426 51.3026 41.2866 51.3026 41.5877V43.0625C51.3026 43.3636 51.5466 43.6076 51.8477 43.6076H53.3225C53.6236 43.6076 53.8676 43.3636 53.8676 43.0625V41.5877C53.8676 41.2866 53.6236 41.0426 53.3225 41.0426Z" fill="black"/>
<path d="M58.9976 41.5877V41.0426H58.4525C58.5971 41.0426 58.7357 41.1 58.838 41.2022C58.9402 41.3045 58.9976 41.4431 58.9976 41.5877Z" fill="black"/>
<path d="M58.4525 43.6076C58.5971 43.6076 58.7357 43.5502 58.838 43.4479C58.9402 43.3457 58.9976 43.2071 58.9976 43.0625V43.6076H58.4525Z" fill="black"/>
<path d="M61.5626 41.0426H58.9976V43.6076H61.5626V41.0426Z" fill="black"/>
<path d="M62.1077 41.0426H61.5626L61.5626 41.5877C61.5626 41.4431 61.62 41.3045 61.7222 41.2022C61.8245 41.1 61.9631 41.0426 62.1077 41.0426Z" fill="black"/>
<path d="M2.56759 44.1527C2.56759 44.0081 2.51017 43.8695 2.40795 43.7672C2.30573 43.665 2.16709 43.6076 2.02253 43.6076H0.547656C0.403096 43.6076 0.264457 43.665 0.162238 43.7672C0.0600194 43.8695 0.00259333 44.0081 0.00259333 44.1527V46.1726H2.56759V44.1527Z" fill="black"/>
<path d="M7.69759 45.6275V44.1527C7.69759 44.0081 7.64017 43.8695 7.53795 43.7672C7.43573 43.665 7.29709 43.6076 7.15253 43.6076H5.67766C5.5331 43.6076 5.39446 43.665 5.29224 43.7672C5.19002 43.8695 5.13259 44.0081 5.13259 44.1527V46.1726H7.69759V45.6275Z" fill="black"/>
<path d="M8.24266 46.1726C8.0981 46.1726 7.95946 46.1152 7.85724 46.0129C7.75502 45.9107 7.69759 45.7721 7.69759 45.6275V46.1726H8.24266Z" fill="black"/>
<path d="M17.9576 44.1527V43.6076H17.4125C17.5571 43.6076 17.6957 43.665 17.7979 43.7672C17.9002 43.8695 17.9576 44.0081 17.9576 44.1527Z" fill="black"/>
<path d="M17.4125 46.1726C17.5571 46.1726 17.6957 46.1152 17.7979 46.0129C17.9002 45.9107 17.9576 45.7721 17.9576 45.6275V46.1726H17.4125Z" fill="black"/>
<path d="M20.5226 43.6076H17.9576V46.1726H20.5226V43.6076Z" fill="black"/>
<path d="M21.0677 43.6076H20.5226L20.5226 44.1527C20.5226 44.0081 20.58 43.8695 20.6822 43.7672C20.7845 43.665 20.9231 43.6076 21.0677 43.6076Z" fill="black"/>
<path d="M21.0677 46.1726C20.9231 46.1726 20.7845 46.1152 20.6822 46.0129C20.58 45.9107 20.5226 45.7721 20.5226 45.6275L20.5226 46.1726H21.0677Z" fill="black"/>
<path d="M53.3225 46.1726C53.4671 46.1726 53.6057 46.1152 53.7079 46.0129C53.8102 45.9107 53.8676 45.7721 53.8676 45.6275V46.1726H53.3225Z" fill="black"/>
<path d="M54.4127 43.6076C54.2681 43.6076 54.1295 43.665 54.0272 43.7672C53.925 43.8695 53.8676 44.0081 53.8676 44.1527L53.8676 46.1726H56.4326V43.6076H54.4127Z" fill="black"/>
<path d="M58.9976 43.6076H56.4326V46.1726H58.9976V43.6076Z" fill="black"/>
<path d="M61.5626 45.6275C61.5626 45.7721 61.5052 45.9107 61.4029 46.0129C61.3007 46.1152 61.1621 46.1726 61.0175 46.1726H58.9976V43.6076H61.5626V45.6275Z" fill="black"/>
<path d="M66.1475 43.6076H64.6727C64.3716 43.6076 64.1276 43.8516 64.1276 44.1527V45.6275C64.1276 45.9286 64.3716 46.1726 64.6727 46.1726H66.1475C66.4486 46.1726 66.6926 45.9286 66.6926 45.6275V44.1527C66.6926 43.8516 66.4486 43.6076 66.1475 43.6076Z" fill="black"/>
<path d="M71.2775 43.6076H69.8027C69.5016 43.6076 69.2576 43.8516 69.2576 44.1527V45.6275C69.2576 45.9286 69.5016 46.1726 69.8027 46.1726H71.2775C71.5786 46.1726 71.8226 45.9286 71.8226 45.6275V44.1527C71.8226 43.8516 71.5786 43.6076 71.2775 43.6076Z" fill="black"/>
<path d="M2.56759 46.1726H0.00259333V48.7376H2.56759V46.1726Z" fill="black"/>
<path d="M7.69759 46.1726H5.13259V48.7376H7.69759V46.1726Z" fill="black"/>
<path d="M10.2626 46.1726L7.69759 46.1726V48.7376H10.2626V46.1726Z" fill="black"/>
<path d="M12.2825 48.7376C12.4271 48.7376 12.5657 48.6802 12.6679 48.5779C12.7702 48.4757 12.8276 48.3371 12.8276 48.1925V46.7177C12.8276 46.5731 12.7702 46.4345 12.6679 46.3322C12.5657 46.23 12.4271 46.1726 12.2825 46.1726H10.2626V48.7376H12.2825Z" fill="black"/>
<path d="M17.4125 46.1726L15.9377 46.1726C15.7931 46.1726 15.6545 46.23 15.5522 46.3322C15.45 46.4345 15.3926 46.5731 15.3926 46.7177V48.1925C15.3926 48.3371 15.45 48.4757 15.5522 48.5779C15.6545 48.6802 15.7931 48.7376 15.9377 48.7376H17.9576V46.1726H17.4125Z" fill="black"/>
<path d="M20.5226 46.1726H17.9576V48.7376H20.5226V46.1726Z" fill="black"/>
<path d="M22.5425 46.1726C22.6871 46.1726 22.8257 46.23 22.9279 46.3322C23.0302 46.4345 23.0876 46.5731 23.0876 46.7177V48.7376H20.5226V46.1726L22.5425 46.1726Z" fill="black"/>
<path d="M51.8477 46.1726C51.7031 46.1726 51.5645 46.23 51.4622 46.3322C51.36 46.4345 51.3026 46.5731 51.3026 46.7177V48.7376H53.8676L53.8676 46.1726L51.8477 46.1726Z" fill="black"/>
<path d="M56.4326 48.1925C56.4326 48.3371 56.3752 48.4757 56.2729 48.5779C56.1707 48.6802 56.0321 48.7376 55.8875 48.7376H53.8676L53.8676 46.1726H56.4326V48.1925Z" fill="black"/>
<path d="M56.9777 46.1726L56.4326 46.1726L56.4326 46.7177C56.4326 46.5731 56.49 46.4345 56.5922 46.3322C56.6945 46.23 56.8331 46.1726 56.9777 46.1726Z" fill="black"/>
<path d="M68.7125 46.1726H67.2377C66.9366 46.1726 66.6926 46.4166 66.6926 46.7177V48.1925C66.6926 48.4936 66.9366 48.7376 67.2377 48.7376H68.7125C69.0136 48.7376 69.2576 48.4936 69.2576 48.1925V46.7177C69.2576 46.4166 69.0136 46.1726 68.7125 46.1726Z" fill="black"/>
<path d="M2.56759 48.7376H0.00259333V51.3026H2.56759V48.7376Z" fill="black"/>
<path d="M5.13259 50.7575C5.13259 50.9021 5.19002 51.0407 5.29224 51.1429C5.39446 51.2452 5.5331 51.3026 5.67766 51.3026H7.15253C7.29709 51.3026 7.43573 51.2452 7.53795 51.1429C7.64017 51.0407 7.69759 50.9021 7.69759 50.7575V48.7376H5.13259V50.7575Z" fill="black"/>
<path d="M8.24266 48.7376H7.69759L7.69759 49.2827C7.69759 49.1381 7.75502 48.9995 7.85724 48.8972C7.95946 48.795 8.0981 48.7376 8.24266 48.7376Z" fill="black"/>
<path d="M14.8475 48.7376H13.3727C13.0716 48.7376 12.8276 48.9816 12.8276 49.2827V50.7575C12.8276 51.0586 13.0716 51.3026 13.3727 51.3026H14.8475C15.1486 51.3026 15.3926 51.0586 15.3926 50.7575V49.2827C15.3926 48.9816 15.1486 48.7376 14.8475 48.7376Z" fill="black"/>
<path d="M17.9576 49.2827V48.7376H17.4125C17.5571 48.7376 17.6957 48.795 17.7979 48.8972C17.9002 48.9995 17.9576 49.1381 17.9576 49.2827Z" fill="black"/>
<path d="M17.9576 50.7575C17.9576 50.9021 18.015 51.0407 18.1172 51.1429C18.2195 51.2452 18.3581 51.3026 18.5027 51.3026H20.5226V48.7376H17.9576L17.9576 50.7575Z" fill="black"/>
<path d="M23.0876 50.7575C23.0876 50.9021 23.0302 51.0407 22.9279 51.1429C22.8257 51.2452 22.6871 51.3026 22.5425 51.3026H20.5226V48.7376H23.0876V50.7575Z" fill="black"/>
<path d="M53.8676 48.7376H51.3026V51.3026H53.8676V48.7376Z" fill="black"/>
<path d="M54.4127 48.7376H53.8676L53.8676 49.2827C53.8676 49.1381 53.925 48.9995 54.0272 48.8972C54.1295 48.795 54.2681 48.7376 54.4127 48.7376Z" fill="black"/>
<path d="M55.8875 51.3026C56.0321 51.3026 56.1707 51.2452 56.2729 51.1429C56.3752 51.0407 56.4326 50.9021 56.4326 50.7575V51.3026H55.8875Z" fill="black"/>
<path d="M54.4127 51.3026C54.2681 51.3026 54.1295 51.2452 54.0272 51.1429C53.925 51.0407 53.8676 50.9021 53.8676 50.7575L53.8676 51.3026H54.4127Z" fill="black"/>
<path d="M58.9976 50.7575V49.2827C58.9976 49.1381 58.9402 48.9995 58.838 48.8972C58.7357 48.795 58.5971 48.7376 58.4525 48.7376H56.9777C56.8331 48.7376 56.6945 48.795 56.5922 48.8972C56.49 48.9995 56.4326 49.1381 56.4326 49.2827L56.4326 51.3026H58.9976V50.7575Z" fill="black"/>
<path d="M61.0175 51.3026C61.1621 51.3026 61.3007 51.2452 61.4029 51.1429C61.5052 51.0407 61.5626 50.9021 61.5626 50.7575V51.3026H61.0175Z" fill="black"/>
<path d="M59.5427 51.3026C59.3981 51.3026 59.2595 51.2452 59.1572 51.1429C59.055 51.0407 58.9976 50.9021 58.9976 50.7575V51.3026H59.5427Z" fill="black"/>
<path d="M62.1077 48.7376C61.9631 48.7376 61.8245 48.795 61.7222 48.8972C61.62 48.9995 61.5626 49.1381 61.5626 49.2827L61.5626 51.3026H64.1276V48.7376H62.1077Z" fill="black"/>
<path d="M64.6727 51.3026H66.1475C66.2921 51.3026 66.4307 51.2452 66.5329 51.1429C66.6352 51.0407 66.6926 50.9021 66.6926 50.7575V49.2827C66.6926 49.1381 66.6352 48.9995 66.5329 48.8972C66.4307 48.795 66.2921 48.7376 66.1475 48.7376H64.1276V51.3026H64.6727Z" fill="black"/>
<path d="M69.8027 48.7376C69.6581 48.7376 69.5194 48.795 69.4172 48.8972C69.315 48.9995 69.2576 49.1381 69.2576 49.2827V51.3026H71.8226V48.7376H69.8027Z" fill="black"/>
<path d="M73.8425 48.7376C73.9871 48.7376 74.1257 48.795 74.2279 48.8972C74.3302 48.9995 74.3876 49.1381 74.3876 49.2827V51.3026H71.8226V48.7376H73.8425Z" fill="black"/>
<path d="M0.00259333 53.3225C0.00259333 53.4671 0.0600194 53.6057 0.162238 53.7079C0.264457 53.8102 0.403096 53.8676 0.547656 53.8676H2.02253C2.16709 53.8676 2.30573 53.8102 2.40795 53.7079C2.51017 53.6057 2.56759 53.4671 2.56759 53.3225V51.3026H0.00259333V53.3225Z" fill="black"/>
<path d="M9.71753 51.3026H8.24266C7.94163 51.3026 7.69759 51.5466 7.69759 51.8477V53.3225C7.69759 53.6236 7.94163 53.8676 8.24266 53.8676H9.71753C10.0186 53.8676 10.2626 53.6236 10.2626 53.3225V51.8477C10.2626 51.5466 10.0186 51.3026 9.71753 51.3026Z" fill="black"/>
<path d="M17.4125 51.3026H15.9377C15.6366 51.3026 15.3926 51.5466 15.3926 51.8477V53.3225C15.3926 53.6236 15.6366 53.8676 15.9377 53.8676H17.4125C17.7136 53.8676 17.9576 53.6236 17.9576 53.3225V51.8477C17.9576 51.5466 17.7136 51.3026 17.4125 51.3026Z" fill="black"/>
<path d="M31.3277 51.3026C31.1831 51.3026 31.0445 51.36 30.9422 51.4622C30.84 51.5645 30.7826 51.7031 30.7826 51.8477V53.8676H33.3476V51.3026H31.3277Z" fill="black"/>
<path d="M35.3675 51.3026C35.5121 51.3026 35.6507 51.36 35.7529 51.4622C35.8552 51.5645 35.9126 51.7031 35.9126 51.8477V53.8676H33.3476V51.3026H35.3675Z" fill="black"/>
<path d="M37.9325 53.8676C38.0771 53.8676 38.2157 53.8102 38.3179 53.7079C38.4202 53.6057 38.4776 53.4671 38.4776 53.3225V53.8676H37.9325Z" fill="black"/>
<path d="M36.4577 53.8676C36.3131 53.8676 36.1745 53.8102 36.0722 53.7079C35.97 53.6057 35.9126 53.4671 35.9126 53.3225L35.9126 53.8676L36.4577 53.8676Z" fill="black"/>
<path d="M41.0426 53.3225V51.8477C41.0426 51.7031 40.9852 51.5645 40.8829 51.4622C40.7807 51.36 40.6421 51.3026 40.4975 51.3026H39.0227C38.8781 51.3026 38.7395 51.36 38.6372 51.4622C38.535 51.5645 38.4776 51.7031 38.4776 51.8477L38.4776 53.8676L41.0426 53.8676V53.3225Z" fill="black"/>
<path d="M41.5877 53.8676C41.4431 53.8676 41.3045 53.8102 41.2022 53.7079C41.1 53.6057 41.0426 53.4671 41.0426 53.3225V53.8676L41.5877 53.8676Z" fill="black"/>
<path d="M48.7376 53.3225V51.8477C48.7376 51.7031 48.6802 51.5645 48.5779 51.4622C48.4757 51.36 48.3371 51.3026 48.1925 51.3026H46.7177C46.5731 51.3026 46.4345 51.36 46.3322 51.4622C46.23 51.5645 46.1726 51.7031 46.1726 51.8477V53.8676H48.7376V53.3225Z" fill="black"/>
<path d="M50.7575 53.8676C50.9021 53.8676 51.0407 53.8102 51.1429 53.7079C51.2452 53.6057 51.3026 53.4671 51.3026 53.3225V53.8676H50.7575Z" fill="black"/>
<path d="M49.2827 53.8676C49.1381 53.8676 48.9995 53.8102 48.8972 53.7079C48.795 53.6057 48.7376 53.4671 48.7376 53.3225V53.8676L49.2827 53.8676Z" fill="black"/>
<path d="M53.8676 51.3026H51.3026V53.8676L53.8676 53.8676V51.3026Z" fill="black"/>
<path d="M56.4326 51.3026H53.8676V53.8676H56.4326V51.3026Z" fill="black"/>
<path d="M58.9976 51.3026H56.4326V53.8676H58.9976V51.3026Z" fill="black"/>
<path d="M61.5626 51.3026H58.9976V53.8676H61.5626V51.3026Z" fill="black"/>
<path d="M64.1276 51.3026H61.5626V53.8676H64.1276V51.3026Z" fill="black"/>
<path d="M64.6727 51.3026H64.1276L64.1276 51.8477C64.1276 51.7031 64.185 51.5645 64.2872 51.4622C64.3895 51.36 64.5281 51.3026 64.6727 51.3026Z" fill="black"/>
<path d="M64.6727 53.8676C64.5281 53.8676 64.3895 53.8102 64.2872 53.7079C64.185 53.6057 64.1276 53.4671 64.1276 53.3225L64.1276 53.8676L64.6727 53.8676Z" fill="black"/>
<path d="M69.2576 53.3225C69.2576 53.4671 69.315 53.6057 69.4172 53.7079C69.5194 53.8102 69.6581 53.8676 69.8027 53.8676H71.8226V51.3026H69.2576V53.3225Z" fill="black"/>
<path d="M74.3876 51.3026H71.8226V53.8676H74.3876V51.3026Z" fill="black"/>
<path d="M21.0677 53.8676C20.9231 53.8676 20.7845 53.925 20.6822 54.0272C20.58 54.1295 20.5226 54.2681 20.5226 54.4127V55.8875C20.5226 56.0321 20.58 56.1707 20.6822 56.2729C20.7845 56.3752 20.9231 56.4326 21.0677 56.4326H23.0876V53.8676H21.0677Z" fill="black"/>
<path d="M25.1075 56.4326C25.2521 56.4326 25.3907 56.3752 25.4929 56.2729C25.5952 56.1707 25.6526 56.0321 25.6526 55.8875V54.4127C25.6526 54.2681 25.5952 54.1295 25.4929 54.0272C25.3907 53.925 25.2521 53.8676 25.1075 53.8676H23.0876V56.4326H25.1075Z" fill="black"/>
<path d="M30.7826 55.8875C30.7826 56.0321 30.84 56.1707 30.9422 56.2729C31.0445 56.3752 31.1831 56.4326 31.3277 56.4326H33.3476V53.8676H30.7826V55.8875Z" fill="black"/>
<path d="M35.9126 53.8676H33.3476V56.4326H35.9126V53.8676Z" fill="black"/>
<path d="M38.4776 53.8676L35.9126 53.8676V56.4326H38.4776V53.8676Z" fill="black"/>
<path d="M41.0426 53.8676L38.4776 53.8676V56.4326H41.0426V53.8676Z" fill="black"/>
<path d="M43.0625 56.4326C43.2071 56.4326 43.3457 56.3752 43.4479 56.2729C43.5502 56.1707 43.6076 56.0321 43.6076 55.8875V54.4127C43.6076 54.2681 43.5502 54.1295 43.4479 54.0272C43.3457 53.925 43.2071 53.8676 43.0625 53.8676L41.0426 53.8676V56.4326H43.0625Z" fill="black"/>
<path d="M48.7376 53.8676H46.1726V56.4326H48.7376V53.8676Z" fill="black"/>
<path d="M51.3026 53.8676L48.7376 53.8676V56.4326H51.3026V53.8676Z" fill="black"/>
<path d="M53.8676 53.8676L51.3026 53.8676V56.4326H53.8676V53.8676Z" fill="black"/>
<path d="M54.4127 53.8676L53.8676 53.8676L53.8676 54.4127C53.8676 54.2681 53.925 54.1295 54.0272 54.0272C54.1295 53.925 54.2681 53.8676 54.4127 53.8676Z" fill="black"/>
<path d="M61.5626 54.4127V53.8676L61.0175 53.8676C61.1621 53.8676 61.3007 53.925 61.4029 54.0272C61.5052 54.1295 61.5626 54.2681 61.5626 54.4127Z" fill="black"/>
<path d="M64.1276 53.8676H61.5626L61.5626 56.4326H64.1276V53.8676Z" fill="black"/>
<path d="M66.1475 53.8676C66.2921 53.8676 66.4307 53.925 66.5329 54.0272C66.6352 54.1295 66.6926 54.2681 66.6926 54.4127V56.4326H64.1276V53.8676L66.1475 53.8676Z" fill="black"/>
<path d="M67.2377 56.4326C67.0931 56.4326 66.9545 56.3752 66.8522 56.2729C66.75 56.1707 66.6926 56.0321 66.6926 55.8875L66.6926 56.4326H67.2377Z" fill="black"/>
<path d="M71.8226 54.4127V53.8676L71.2775 53.8676C71.4221 53.8676 71.5607 53.925 71.6629 54.0272C71.7652 54.1295 71.8226 54.2681 71.8226 54.4127Z" fill="black"/>
<path d="M71.8226 55.8875C71.8226 56.0321 71.88 56.1707 71.9822 56.2729C72.0845 56.3752 72.2231 56.4326 72.3677 56.4326H73.8425C73.9871 56.4326 74.1257 56.3752 74.2279 56.2729C74.3302 56.1707 74.3876 56.0321 74.3876 55.8875V53.8676H71.8226V55.8875Z" fill="black"/>
<path d="M28.2176 56.9777C28.2176 56.8331 28.1602 56.6945 28.0579 56.5922C27.9557 56.49 27.8171 56.4326 27.6725 56.4326H26.1977C26.0531 56.4326 25.9145 56.49 25.8122 56.5922C25.71 56.6945 25.6526 56.8331 25.6526 56.9777V58.9976H28.2176V56.9777Z" fill="black"/>
<path d="M48.7376 56.4326H46.1726V58.9976H48.7376V56.4326Z" fill="black"/>
<path d="M51.3026 56.4326H48.7376V58.9976H51.3026V56.4326Z" fill="black"/>
<path d="M53.8676 56.4326H51.3026V58.9976H53.8676V56.4326Z" fill="black"/>
<path d="M58.4525 56.4326H56.9777C56.6766 56.4326 56.4326 56.6766 56.4326 56.9777V58.4525C56.4326 58.7536 56.6766 58.9976 56.9777 58.9976H58.4525C58.7536 58.9976 58.9976 58.7536 58.9976 58.4525V56.9777C58.9976 56.6766 58.7536 56.4326 58.4525 56.4326Z" fill="black"/>
<path d="M64.1276 56.4326H61.5626V58.9976H64.1276V56.4326Z" fill="black"/>
<path d="M66.6926 56.4326H64.1276V58.9976H66.6926V56.4326Z" fill="black"/>
<path d="M69.2576 56.4326L66.6926 56.4326V58.9976H69.2576V56.4326Z" fill="black"/>
<path d="M71.2775 56.4326C71.4221 56.4326 71.5607 56.49 71.6629 56.5922C71.7652 56.6945 71.8226 56.8331 71.8226 56.9777V58.9976H69.2576V56.4326H71.2775Z" fill="black"/>
<path d="M72.3677 58.9976C72.2231 58.9976 72.0845 58.9402 71.9822 58.838C71.88 58.7357 71.8226 58.5971 71.8226 58.4525L71.8226 58.9976H72.3677Z" fill="black"/>
<path d="M25.1075 61.5626C25.2521 61.5626 25.3907 61.5052 25.4929 61.4029C25.5952 61.3007 25.6526 61.1621 25.6526 61.0175V61.5626H25.1075Z" fill="black"/>
<path d="M28.2176 58.9976H25.6526L25.6526 61.5626H28.2176V58.9976Z" fill="black"/>
<path d="M28.7627 61.5626C28.6181 61.5626 28.4795 61.5052 28.3772 61.4029C28.275 61.3007 28.2176 61.1621 28.2176 61.0175V61.5626H28.7627Z" fill="black"/>
<path d="M37.9325 58.9976H36.4577C36.1566 58.9976 35.9126 59.2416 35.9126 59.5427V61.0175C35.9126 61.3186 36.1566 61.5626 36.4577 61.5626H37.9325C38.2336 61.5626 38.4776 61.3186 38.4776 61.0175V59.5427C38.4776 59.2416 38.2336 58.9976 37.9325 58.9976Z" fill="black"/>
<path d="M46.1726 61.0175C46.1726 61.1621 46.23 61.3007 46.3322 61.4029C46.4345 61.5052 46.5731 61.5626 46.7177 61.5626H48.7376V58.9976H46.1726V61.0175Z" fill="black"/>
<path d="M51.3026 58.9976H48.7376V61.5626H51.3026V58.9976Z" fill="black"/>
<path d="M53.8676 58.9976H51.3026V61.5626H53.8676V58.9976Z" fill="black"/>
<path d="M54.4127 61.5626C54.2681 61.5626 54.1295 61.5052 54.0272 61.4029C53.925 61.3007 53.8676 61.1621 53.8676 61.0175L53.8676 61.5626H54.4127Z" fill="black"/>
<path d="M61.0175 61.5626C61.1621 61.5626 61.3007 61.5052 61.4029 61.4029C61.5052 61.3007 61.5626 61.1621 61.5626 61.0175V61.5626H61.0175Z" fill="black"/>
<path d="M64.1276 58.9976H61.5626L61.5626 61.5626H64.1276V58.9976Z" fill="black"/>
<path d="M66.6926 61.0175C66.6926 61.1621 66.6352 61.3007 66.5329 61.4029C66.4307 61.5052 66.2921 61.5626 66.1475 61.5626H64.1276V58.9976H66.6926V61.0175Z" fill="black"/>
<path d="M67.2377 58.9976L66.6926 58.9976L66.6926 59.5427C66.6926 59.3981 66.75 59.2595 66.8522 59.1572C66.9545 59.055 67.0931 58.9976 67.2377 58.9976Z" fill="black"/>
<path d="M69.2576 59.5427V58.9976H68.7125C68.8571 58.9976 68.9957 59.055 69.098 59.1572C69.2002 59.2595 69.2576 59.3981 69.2576 59.5427Z" fill="black"/>
<path d="M69.2576 61.0175C69.2576 61.1621 69.315 61.3007 69.4172 61.4029C69.5194 61.5052 69.6581 61.5626 69.8027 61.5626H71.8226V58.9976H69.2576L69.2576 61.0175Z" fill="black"/>
<path d="M73.8425 61.5626C73.9871 61.5626 74.1257 61.5052 74.2279 61.4029C74.3302 61.3007 74.3876 61.1621 74.3876 61.0175V59.5427C74.3876 59.3981 74.3302 59.2595 74.2279 59.1572C74.1257 59.055 73.9871 58.9976 73.8425 58.9976L71.8226 58.9976V61.5626H73.8425Z" fill="black"/>
<path d="M21.0677 61.5626C20.9231 61.5626 20.7845 61.62 20.6822 61.7222C20.58 61.8245 20.5226 61.9631 20.5226 62.1077V64.1276H23.0876V61.5626H21.0677Z" fill="black"/>
<path d="M25.6526 61.5626L23.0876 61.5626V64.1276H25.6526L25.6526 61.5626Z" fill="black"/>
<path d="M28.2176 61.5626H25.6526L25.6526 64.1276H28.2176V61.5626Z" fill="black"/>
<path d="M30.7826 61.5626L28.2176 61.5626V64.1276H30.7826V61.5626Z" fill="black"/>
<path d="M32.8025 61.5626C32.9471 61.5626 33.0857 61.62 33.1879 61.7222C33.2902 61.8245 33.3476 61.9631 33.3476 62.1077V64.1276H30.7826V61.5626H32.8025Z" fill="black"/>
<path d="M33.8927 64.1276C33.7481 64.1276 33.6095 64.0702 33.5072 63.9679C33.405 63.8657 33.3476 63.7271 33.3476 63.5825L33.3476 64.1276L33.8927 64.1276Z" fill="black"/>
<path d="M39.0227 61.5626C38.8781 61.5626 38.7395 61.62 38.6372 61.7222C38.535 61.8245 38.4776 61.9631 38.4776 62.1077V63.5825C38.4776 63.7271 38.535 63.8657 38.6372 63.9679C38.7395 64.0702 38.8781 64.1276 39.0227 64.1276H41.0426V61.5626H39.0227Z" fill="black"/>
<path d="M43.0625 61.5626C43.2071 61.5626 43.3457 61.62 43.4479 61.7222C43.5502 61.8245 43.6076 61.9631 43.6076 62.1077V64.1276H41.0426V61.5626H43.0625Z" fill="black"/>
<path d="M44.1527 64.1276C44.0081 64.1276 43.8695 64.0702 43.7672 63.9679C43.665 63.8657 43.6076 63.7271 43.6076 63.5825V64.1276L44.1527 64.1276Z" fill="black"/>
<path d="M48.7376 62.1077L48.7376 61.5626H48.1925C48.3371 61.5626 48.4757 61.62 48.5779 61.7222C48.6802 61.8245 48.7376 61.9631 48.7376 62.1077Z" fill="black"/>
<path d="M48.7376 63.5825C48.7376 63.7271 48.795 63.8657 48.8972 63.9679C48.9995 64.0702 49.1381 64.1276 49.2827 64.1276H51.3026V61.5626H48.7376V63.5825Z" fill="black"/>
<path d="M53.8676 61.5626H51.3026V64.1276H53.8676V61.5626Z" fill="black"/>
<path d="M56.4326 61.5626L53.8676 61.5626V64.1276H56.4326V61.5626Z" fill="black"/>
<path d="M58.9976 61.5626H56.4326V64.1276H58.9976V61.5626Z" fill="black"/>
<path d="M61.5626 61.5626L58.9976 61.5626V64.1276H61.5626V61.5626Z" fill="black"/>
<path d="M64.1276 61.5626H61.5626V64.1276H64.1276V61.5626Z" fill="black"/>
<path d="M64.6727 61.5626L64.1276 61.5626L64.1276 62.1077C64.1276 61.9631 64.185 61.8245 64.2872 61.7222C64.3895 61.62 64.5281 61.5626 64.6727 61.5626Z" fill="black"/>
<path d="M64.6727 64.1276C64.5281 64.1276 64.3895 64.0702 64.2872 63.9679C64.185 63.8657 64.1276 63.7271 64.1276 63.5825L64.1276 64.1276L64.6727 64.1276Z" fill="black"/>
<path d="M23.0876 64.1276H20.5226V66.6926H23.0876V64.1276Z" fill="black"/>
<path d="M25.6526 64.1276H23.0876V66.6926H25.6526V64.1276Z" fill="black"/>
<path d="M28.2176 64.1276H25.6526V66.6926H28.2176V64.1276Z" fill="black"/>
<path d="M30.7826 64.1276H28.2176V66.6926H30.7826V64.1276Z" fill="black"/>
<path d="M33.3476 64.1276H30.7826V66.6926H33.3476V64.1276Z" fill="black"/>
<path d="M35.9126 64.1276L33.3476 64.1276V66.6926H35.9126V64.1276Z" fill="black"/>
<path d="M37.9325 64.1276C38.0771 64.1276 38.2157 64.185 38.3179 64.2872C38.4202 64.3895 38.4776 64.5281 38.4776 64.6727V66.6926H35.9126V64.1276H37.9325Z" fill="black"/>
<path d="M41.0426 64.6727L41.0426 64.1276L40.4975 64.1276C40.6421 64.1276 40.7807 64.185 40.8829 64.2872C40.9852 64.3895 41.0426 64.5281 41.0426 64.6727Z" fill="black"/>
<path d="M40.4975 66.6926C40.6421 66.6926 40.7807 66.6352 40.8829 66.5329C40.9852 66.4307 41.0426 66.2921 41.0426 66.1475V66.6926H40.4975Z" fill="black"/>
<path d="M39.0227 66.6926C38.8781 66.6926 38.7395 66.6352 38.6372 66.5329C38.535 66.4307 38.4776 66.2921 38.4776 66.1475L38.4776 66.6926H39.0227Z" fill="black"/>
<path d="M43.6076 64.1276H41.0426L41.0426 66.6926H43.6076V64.1276Z" fill="black"/>
<path d="M46.1726 64.1276L43.6076 64.1276V66.6926H46.1726V64.1276Z" fill="black"/>
<path d="M48.1925 64.1276C48.3371 64.1276 48.4757 64.185 48.5779 64.2872C48.6802 64.3895 48.7376 64.5281 48.7376 64.6727V66.6926H46.1726V64.1276H48.1925Z" fill="black"/>
<path d="M51.3026 64.6727V64.1276L50.7575 64.1276C50.9021 64.1276 51.0407 64.185 51.1429 64.2872C51.2452 64.3895 51.3026 64.5281 51.3026 64.6727Z" fill="black"/>
<path d="M51.3026 66.1475C51.3026 66.2921 51.36 66.4307 51.4622 66.5329C51.5645 66.6352 51.7031 66.6926 51.8477 66.6926H53.8676V64.1276H51.3026V66.1475Z" fill="black"/>
<path d="M56.4326 64.1276H53.8676V66.6926H56.4326V64.1276Z" fill="black"/>
<path d="M58.9976 64.1276H56.4326V66.6926H58.9976V64.1276Z" fill="black"/>
<path d="M59.5427 64.1276L58.9976 64.1276L58.9976 64.6727C58.9976 64.5281 59.055 64.3895 59.1572 64.2872C59.2595 64.185 59.3981 64.1276 59.5427 64.1276Z" fill="black"/>
<path d="M61.5626 64.6727V64.1276L61.0175 64.1276C61.1621 64.1276 61.3007 64.185 61.4029 64.2872C61.5052 64.3895 61.5626 64.5281 61.5626 64.6727Z" fill="black"/>
<path d="M61.0175 66.6926C61.1621 66.6926 61.3007 66.6352 61.4029 66.5329C61.5052 66.4307 61.5626 66.2921 61.5626 66.1475V66.6926H61.0175Z" fill="black"/>
<path d="M59.5427 66.6926C59.3981 66.6926 59.2595 66.6352 59.1572 66.5329C59.055 66.4307 58.9976 66.2921 58.9976 66.1475V66.6926H59.5427Z" fill="black"/>
<path d="M64.1276 64.1276H61.5626V66.6926H64.1276V64.1276Z" fill="black"/>
<path d="M64.6727 66.6926H66.1475C66.2921 66.6926 66.4307 66.6352 66.5329 66.5329C66.6352 66.4307 66.6926 66.2921 66.6926 66.1475V64.6727C66.6926 64.5281 66.6352 64.3895 66.5329 64.2872C66.4307 64.185 66.2921 64.1276 66.1475 64.1276L64.1276 64.1276V66.6926H64.6727Z" fill="black"/>
<path d="M20.5226 68.7125C20.5226 68.8571 20.58 68.9957 20.6822 69.098C20.7845 69.2002 20.9231 69.2576 21.0677 69.2576H23.0876V66.6926H20.5226V68.7125Z" fill="black"/>
<path d="M25.6526 66.6926H23.0876V69.2576H25.6526V66.6926Z" fill="black"/>
<path d="M26.1977 66.6926L25.6526 66.6926L25.6526 67.2377C25.6526 67.0931 25.71 66.9545 25.8122 66.8522C25.9145 66.75 26.0531 66.6926 26.1977 66.6926Z" fill="black"/>
<path d="M30.7826 67.2377L30.7826 66.6926L30.2375 66.6926C30.3821 66.6926 30.5207 66.75 30.6229 66.8522C30.7252 66.9545 30.7826 67.0931 30.7826 67.2377Z" fill="black"/>
<path d="M30.7826 68.7125C30.7826 68.8571 30.84 68.9957 30.9422 69.098C31.0445 69.2002 31.1831 69.2576 31.3277 69.2576H33.3476V66.6926H30.7826V68.7125Z" fill="black"/>
<path d="M35.9126 66.6926H33.3476V69.2576H35.9126V66.6926Z" fill="black"/>
<path d="M38.4776 66.6926H35.9126V69.2576H38.4776V66.6926Z" fill="black"/>
<path d="M41.0426 66.6926H38.4776V69.2576H41.0426L41.0426 66.6926Z" fill="black"/>
<path d="M43.6076 66.6926H41.0426L41.0426 69.2576H43.6076V66.6926Z" fill="black"/>
<path d="M46.1726 66.6926H43.6076V69.2576H46.1726V66.6926Z" fill="black"/>
<path d="M48.7376 66.6926H46.1726V69.2576H48.7376V66.6926Z" fill="black"/>
<path d="M53.8676 67.2377L53.8676 66.6926L53.3225 66.6926C53.4671 66.6926 53.6057 66.75 53.7079 66.8522C53.8102 66.9545 53.8676 67.0931 53.8676 67.2377Z" fill="black"/>
<path d="M53.8676 68.7125C53.8676 68.8571 53.925 68.9957 54.0272 69.098C54.1295 69.2002 54.2681 69.2576 54.4127 69.2576H56.4326V66.6926H53.8676L53.8676 68.7125Z" fill="black"/>
<path d="M58.9976 66.6926H56.4326V69.2576H58.9976V66.6926Z" fill="black"/>
<path d="M61.5626 66.6926H58.9976V69.2576H61.5626V66.6926Z" fill="black"/>
<path d="M64.1276 68.7125C64.1276 68.8571 64.0702 68.9957 63.9679 69.098C63.8657 69.2002 63.7271 69.2576 63.5825 69.2576H61.5626V66.6926H64.1276V68.7125Z" fill="black"/>
<path d="M64.6727 66.6926H64.1276L64.1276 67.2377C64.1276 67.0931 64.185 66.9545 64.2872 66.8522C64.3895 66.75 64.5281 66.6926 64.6727 66.6926Z" fill="black"/>
<path d="M67.2377 66.6926C67.0931 66.6926 66.9545 66.75 66.8522 66.8522C66.75 66.9545 66.6926 67.0931 66.6926 67.2377V68.7125C66.6926 68.8571 66.75 68.9957 66.8522 69.098C66.9545 69.2002 67.0931 69.2576 67.2377 69.2576H69.2576V66.6926H67.2377Z" fill="black"/>
<path d="M71.2775 69.2576C71.4221 69.2576 71.5607 69.2002 71.6629 69.098C71.7652 68.9957 71.8226 68.8571 71.8226 68.7125V67.2377C71.8226 67.0931 71.7652 66.9545 71.6629 66.8522C71.5607 66.75 71.4221 66.6926 71.2775 66.6926H69.2576V69.2576H71.2775Z" fill="black"/>
<path d="M23.0876 69.8027L23.0876 69.2576L22.5425 69.2576C22.6871 69.2576 22.8257 69.315 22.9279 69.4172C23.0302 69.5195 23.0876 69.6581 23.0876 69.8027Z" fill="black"/>
<path d="M23.0876 71.2775C23.0876 71.4221 23.145 71.5607 23.2472 71.6629C23.3495 71.7652 23.4881 71.8226 23.6327 71.8226H25.1075C25.2521 71.8226 25.3907 71.7652 25.4929 71.6629C25.5952 71.5607 25.6526 71.4221 25.6526 71.2775V69.2576H23.0876V71.2775Z" fill="black"/>
<path d="M27.6725 71.8226C27.8171 71.8226 27.9557 71.7652 28.0579 71.6629C28.1602 71.5607 28.2176 71.4221 28.2176 71.2775V71.8226H27.6725Z" fill="black"/>
<path d="M30.7826 69.8027C30.7826 69.6581 30.7252 69.5194 30.6229 69.4172C30.5207 69.315 30.3821 69.2576 30.2375 69.2576H28.7627C28.6181 69.2576 28.4795 69.315 28.3772 69.4172C28.275 69.5194 28.2176 69.6581 28.2176 69.8027V71.8226H30.7826V69.8027Z" fill="black"/>
<path d="M35.9126 69.8027V69.2576L35.3675 69.2576C35.5121 69.2576 35.6507 69.315 35.7529 69.4172C35.8552 69.5195 35.9126 69.6581 35.9126 69.8027Z" fill="black"/>
<path d="M38.4776 69.2576H35.9126L35.9126 71.8226H38.4776V69.2576Z" fill="black"/>
<path d="M39.0227 69.2576L38.4776 69.2576L38.4776 69.8027C38.4776 69.6581 38.535 69.5194 38.6372 69.4172C38.7395 69.315 38.8781 69.2576 39.0227 69.2576Z" fill="black"/>
<path d="M39.0227 71.8226C38.8781 71.8226 38.7395 71.7652 38.6372 71.6629C38.535 71.5607 38.4776 71.4221 38.4776 71.2775L38.4776 71.8226H39.0227Z" fill="black"/>
<path d="M43.6076 69.8027V69.2576L43.0625 69.2576C43.2071 69.2576 43.3457 69.315 43.4479 69.4172C43.5502 69.5195 43.6076 69.6581 43.6076 69.8027Z" fill="black"/>
<path d="M46.1726 69.2576H43.6076V71.8226H46.1726V69.2576Z" fill="black"/>
<path d="M48.7376 69.2576H46.1726V71.8226H48.7376V69.2576Z" fill="black"/>
<path d="M58.9976 69.8027V69.2576L58.4525 69.2576C58.5971 69.2576 58.7357 69.315 58.838 69.4172C58.9402 69.5195 58.9976 69.6581 58.9976 69.8027Z" fill="black"/>
<path d="M58.4525 71.8226C58.5971 71.8226 58.7357 71.7652 58.838 71.6629C58.9402 71.5607 58.9976 71.4221 58.9976 71.2775V71.8226H58.4525Z" fill="black"/>
<path d="M61.5626 69.2576H58.9976V71.8226H61.5626V69.2576Z" fill="black"/>
<path d="M62.1077 69.2576L61.5626 69.2576L61.5626 69.8027C61.5626 69.6581 61.62 69.5194 61.7222 69.4172C61.8245 69.315 61.9631 69.2576 62.1077 69.2576Z" fill="black"/>
<path d="M63.5825 71.8226C63.7271 71.8226 63.8657 71.7652 63.9679 71.6629C64.0702 71.5607 64.1276 71.4221 64.1276 71.2775V71.8226H63.5825Z" fill="black"/>
<path d="M62.1077 71.8226C61.9631 71.8226 61.8245 71.7652 61.7222 71.6629C61.62 71.5607 61.5626 71.4221 61.5626 71.2775V71.8226H62.1077Z" fill="black"/>
<path d="M66.6926 69.8027C66.6926 69.6581 66.6352 69.5194 66.5329 69.4172C66.4307 69.315 66.2921 69.2576 66.1475 69.2576H64.6727C64.5281 69.2576 64.3895 69.315 64.2872 69.4172C64.185 69.5194 64.1276 69.6581 64.1276 69.8027V71.8226H66.6926V69.8027Z" fill="black"/>
<path d="M73.8425 69.2576H72.3677C72.0666 69.2576 71.8226 69.5016 71.8226 69.8027V71.2775C71.8226 71.5786 72.0666 71.8226 72.3677 71.8226H73.8425C74.1436 71.8226 74.3876 71.5786 74.3876 71.2775V69.8027C74.3876 69.5016 74.1436 69.2576 73.8425 69.2576Z" fill="black"/>
<path d="M27.6725 71.8226H26.1977C26.0531 71.8226 25.9145 71.88 25.8122 71.9822C25.71 72.0845 25.6526 72.2231 25.6526 72.3677V73.8425C25.6526 73.9871 25.71 74.1257 25.8122 74.2279C25.9145 74.3302 26.0531 74.3876 26.1977 74.3876H28.2176V71.8226H27.6725Z" fill="black"/>
<path d="M30.7826 73.8425C30.7826 73.9871 30.7252 74.1257 30.6229 74.2279C30.5207 74.3302 30.3821 74.3876 30.2375 74.3876H28.2176V71.8226H30.7826V73.8425Z" fill="black"/>
<path d="M35.9126 73.8425C35.9126 73.9871 35.97 74.1257 36.0722 74.2279C36.1745 74.3302 36.3131 74.3876 36.4577 74.3876H38.4776V71.8226H35.9126V73.8425Z" fill="black"/>
<path d="M40.4975 74.3876C40.6421 74.3876 40.7807 74.3302 40.8829 74.2279C40.9852 74.1257 41.0426 73.9871 41.0426 73.8425V72.3677C41.0426 72.2231 40.9852 72.0845 40.8829 71.9822C40.7807 71.88 40.6421 71.8226 40.4975 71.8226H38.4776V74.3876H40.4975Z" fill="black"/>
<path d="M43.6076 73.8425C43.6076 73.9871 43.665 74.1257 43.7672 74.2279C43.8695 74.3302 44.0081 74.3876 44.1527 74.3876H46.1726V71.8226H43.6076V73.8425Z" fill="black"/>
<path d="M48.7376 73.8425C48.7376 73.9871 48.6802 74.1257 48.5779 74.2279C48.4757 74.3302 48.3371 74.3876 48.1925 74.3876H46.1726V71.8226H48.7376V73.8425Z" fill="black"/>
<path d="M58.4525 71.8226H56.9777C56.8331 71.8226 56.6945 71.88 56.5922 71.9822C56.49 72.0845 56.4326 72.2231 56.4326 72.3677V73.8425C56.4326 73.9871 56.49 74.1257 56.5922 74.2279C56.6945 74.3302 56.8331 74.3876 56.9777 74.3876H58.9976V71.8226H58.4525Z" fill="black"/>
<path d="M61.5626 71.8226H58.9976V74.3876H61.5626V71.8226Z" fill="black"/>
<path d="M64.1276 71.8226H61.5626V74.3876H64.1276L64.1276 71.8226Z" fill="black"/>
<path d="M66.6926 73.8425C66.6926 73.9871 66.6352 74.1257 66.5329 74.2279C66.4307 74.3302 66.2921 74.3876 66.1475 74.3876H64.1276L64.1276 71.8226H66.6926V73.8425Z" fill="black"/>
<path d="M0.546345 0C0.24624 0 0 0.24624 0 0.546345V17.4138C0 17.7139 0.243675 17.9601 0.546345 17.9601H17.4138C17.7139 17.9601 17.9601 17.7165 17.9601 17.4138V0.546345C17.9601 0.24624 17.7165 0 17.4138 0H0.546345ZM15.3926 15.0796C15.3926 15.2541 15.2515 15.3926 15.0796 15.3926H2.8805C2.70608 15.3926 2.56757 15.2515 2.56757 15.0796V2.8805C2.56757 2.70608 2.70864 2.56757 2.8805 2.56757H15.0796C15.2541 2.56757 15.3926 2.70864 15.3926 2.8805V15.0796Z" fill="black"/>
<path d="M12.8276 5.67637C12.8276 5.37627 12.5839 5.13003 12.2812 5.13003H5.67637C5.37627 5.13003 5.13003 5.3737 5.13003 5.67637V12.2838C5.13003 12.5839 5.3737 12.8302 5.67637 12.8302H12.2812C12.5814 12.8302 12.8276 12.5865 12.8276 12.2838V5.67637Z" fill="black"/>
<path d="M56.9763 0C56.6762 0 56.43 0.24624 56.43 0.546345V17.4138C56.43 17.7139 56.6737 17.9601 56.9763 17.9601H73.8438C74.1439 17.9601 74.3901 17.7165 74.3901 17.4138V0.546345C74.3901 0.24624 74.1465 0 73.8438 0H56.9763ZM71.8226 15.0796C71.8226 15.2541 71.6815 15.3926 71.5096 15.3926H59.3105C59.1361 15.3926 58.9976 15.2515 58.9976 15.0796V2.8805C58.9976 2.70608 59.1386 2.56757 59.3105 2.56757H71.5096C71.6841 2.56757 71.8226 2.70864 71.8226 2.8805V15.0796Z" fill="black"/>
<path d="M69.2576 5.67637C69.2576 5.37627 69.0139 5.13003 68.7113 5.13003H62.1064C61.8063 5.13003 61.56 5.3737 61.56 5.67637V12.2838C61.56 12.5839 61.8037 12.8302 62.1064 12.8302H68.7113C69.0114 12.8302 69.2576 12.5865 69.2576 12.2838V5.67637Z" fill="black"/>
<path d="M0.546345 56.43C0.24624 56.43 0 56.6762 0 56.9763V73.8438C0 74.1439 0.243675 74.3901 0.546345 74.3901H17.4138C17.7139 74.3901 17.9601 74.1465 17.9601 73.8438V56.9763C17.9601 56.6762 17.7165 56.43 17.4138 56.43H0.546345ZM15.3926 71.5096C15.3926 71.6841 15.2515 71.8226 15.0796 71.8226H2.8805C2.70608 71.8226 2.56757 71.6815 2.56757 71.5096V59.3105C2.56757 59.1361 2.70864 58.9976 2.8805 58.9976H15.0796C15.2541 58.9976 15.3926 59.1386 15.3926 59.3105V71.5096Z" fill="black"/>
<path d="M12.8276 62.1064C12.8276 61.8063 12.5839 61.56 12.2812 61.56H5.67637C5.37627 61.56 5.13003 61.8037 5.13003 62.1064V68.7138C5.13003 69.0139 5.3737 69.2602 5.67637 69.2602H12.2812C12.5814 69.2602 12.8276 69.0165 12.8276 68.7138V62.1064Z" fill="black"/>
<path d="M37.1726 28.9646C32.6411 28.9646 28.9646 32.6411 28.9646 37.1726C28.9646 41.7041 32.6411 45.3806 37.1726 45.3806C41.7041 45.3806 45.3806 41.7041 45.3806 37.1726C45.3806 32.6411 41.7041 28.9646 37.1726 28.9646ZM43.6834 36.1466H41.9221C41.8879 35.6336 41.8281 35.1334 41.7383 34.6546C42.6232 35.0607 43.3072 35.5695 43.6834 36.1466ZM40.5498 36.1466H37.8566V33.7697C38.6945 33.8124 39.4896 33.9407 40.2164 34.1245C40.3788 34.7529 40.49 35.4327 40.5498 36.1466ZM37.8566 32.406V30.4779C38.5705 30.7815 39.2075 31.551 39.6906 32.6069C39.1049 32.5 38.4936 32.4316 37.8566 32.406ZM36.4886 30.4779V32.406C35.8516 32.4359 35.2403 32.5043 34.6546 32.6069C35.1377 31.551 35.7747 30.7815 36.4886 30.4779ZM36.4886 33.7697V36.1466H33.7953C33.8509 35.4327 33.9663 34.7529 34.1245 34.1288C34.8555 33.9407 35.6507 33.8124 36.4886 33.7697ZM32.4231 36.1466H30.6618C31.038 35.5695 31.722 35.0607 32.6069 34.6546C32.5214 35.1334 32.4615 35.6336 32.4231 36.1466ZM30.3668 37.5146H32.3931C32.4102 38.2713 32.4829 39.0023 32.6069 39.6906C31.3842 39.1305 30.5463 38.3653 30.3668 37.5146ZM33.7611 37.5146H36.4886V40.5755C35.6507 40.5327 34.8555 40.4045 34.1288 40.2207C33.915 39.3913 33.7868 38.4765 33.7611 37.5146ZM36.4886 41.9392V43.8672C35.7747 43.5637 35.1377 42.7942 34.6546 41.7383C35.2403 41.8452 35.8516 41.9136 36.4886 41.9392ZM37.8566 43.8672V41.9392C38.4936 41.9093 39.1049 41.8409 39.6906 41.7383C39.2075 42.7942 38.5705 43.5637 37.8566 43.8672ZM37.8566 40.5755V37.5146H40.584C40.5584 38.4765 40.4301 39.3913 40.2164 40.2164C39.4896 40.4045 38.6945 40.5327 37.8566 40.5755ZM41.952 37.5146H43.9784C43.7988 38.3653 42.9609 39.1305 41.7383 39.6906C41.8623 39.0023 41.9349 38.2713 41.952 37.5146ZM43.1619 33.8723C42.6232 33.5388 42.0076 33.2524 41.3193 33.0258C41.0885 32.3418 40.8021 31.722 40.4729 31.1833C41.6015 31.8075 42.5377 32.7437 43.1619 33.8723ZM33.8723 31.1833C33.5388 31.722 33.2524 32.3376 33.0258 33.0258C32.3418 33.2567 31.722 33.5431 31.1833 33.8723C31.8075 32.7437 32.7437 31.8075 33.8723 31.1833ZM31.1833 40.4729C31.722 40.8063 32.3376 41.0928 33.0258 41.3193C33.2567 42.0033 33.5431 42.6232 33.8723 43.1619C32.7437 42.5377 31.8075 41.6015 31.1833 40.4729ZM40.4729 43.1619C40.8063 42.6232 41.0928 42.0076 41.3193 41.3193C42.0033 41.0885 42.6232 40.8021 43.1619 40.4729C42.5377 41.6015 41.6015 42.5377 40.4729 43.1619Z" fill="black"/>
</svg>
