<svg width="35" height="35" viewBox="0 0 35 35" fill="none" xmlns="http://www.w3.org/2000/svg">
<path d="M30.625 10.0319L24.9681 4.375C24.7653 4.17142 24.5243 4.00989 24.2589 3.89967C23.9935 3.78945 23.7089 3.73271 23.4216 3.73271C23.1342 3.73271 22.8496 3.78945 22.5842 3.89967C22.3189 4.00989 22.0778 4.17142 21.875 4.375L5.92229 20.3277C5.495 20.755 5.10854 21.3879 4.82854 22.0602C4.54854 22.7354 4.375 23.4588 4.375 24.0625V30.625H10.9375C11.5413 30.625 12.2617 30.4515 12.9369 30.1715C13.6121 29.8915 14.2435 29.505 14.6708 29.0777L30.625 13.125C30.8286 12.9222 30.9901 12.6811 31.1003 12.4158C31.2106 12.1504 31.2673 11.8658 31.2673 11.5784C31.2673 11.2911 31.2106 11.0065 31.1003 10.7411C30.9901 10.4757 30.8286 10.2347 30.625 10.0319ZM8.41167 21.964L20.5056 9.87L22.3023 11.6667L10.2083 23.7606L8.41167 21.964ZM10.9375 27.7083H8.75L7.29167 26.25V24.0625C7.29167 23.9502 7.33979 23.6177 7.52208 23.1802C7.53667 23.151 11.849 27.4648 11.849 27.4648C11.3794 27.6602 11.0498 27.7083 10.9375 27.7083ZM13.036 26.5883L11.2394 24.7917L23.3333 12.6977L25.13 14.4944L13.036 26.5883ZM26.161 13.4633L21.5352 8.8375L23.4208 6.95187L28.0437 11.5777L26.161 13.4633Z" fill="white"/>
</svg>
