<svg width="26" height="26" viewBox="0 0 26 26" fill="none" xmlns="http://www.w3.org/2000/svg">
<path d="M7.41795 16.3522H8.59234L9.00858 15.9508C7.50127 14.2027 6.6729 11.9709 6.67467 9.66267C6.67467 7.75157 7.24138 5.8834 8.30312 4.29438C9.36487 2.70536 10.874 1.46687 12.6396 0.735531C14.4052 0.00418669 16.3481 -0.187166 18.2224 0.18567C20.0968 0.558506 21.8185 1.47878 23.1699 2.83013C24.5212 4.18148 25.4415 5.9032 25.8143 7.77757C26.1872 9.65195 25.9958 11.5948 25.2645 13.3604C24.5331 15.126 23.2946 16.6351 21.7056 17.6969C20.1166 18.7586 18.2484 19.3253 16.3373 19.3253C13.944 19.3253 11.7439 18.4483 10.0492 16.9914L9.6478 17.4077V18.582L2.21498 26L0 23.785L7.41795 16.3522ZM16.3373 16.3522C20.0389 16.3522 23.0269 13.3642 23.0269 9.66267C23.0269 5.96112 20.0389 2.97313 16.3373 2.97313C12.6358 2.97313 9.6478 5.96112 9.6478 9.66267C9.6478 13.3642 12.6358 16.3522 16.3373 16.3522Z" fill="white"/>
</svg>
