<svg width="32" height="32" viewBox="0 0 32 32" fill="none" xmlns="http://www.w3.org/2000/svg">
<path d="M28 20H24.6667C24.1366 20.0011 23.6285 20.2121 23.2536 20.587C22.8788 20.9618 22.6677 21.4699 22.6667 22C22.6677 22.5301 22.8788 23.0382 23.2536 23.413C23.6285 23.7879 24.1366 23.9989 24.6667 24H26C26.5301 24.0011 27.0382 24.2121 27.4131 24.587C27.7879 24.9618 27.999 25.4699 28 26C27.999 26.5301 27.7879 27.0382 27.4131 27.413C27.0382 27.7879 26.5301 27.9989 26 28H22.6667M25.3333 28V29.3333M25.3333 18.6667V20M17.3333 28H8.00001C7.29277 28 6.61449 27.7191 6.11439 27.219C5.61429 26.7189 5.33334 26.0406 5.33334 25.3333V12C5.33334 11.2928 5.61429 10.6145 6.11439 10.1144C6.61449 9.61429 7.29277 9.33334 8.00001 9.33334H10.6667M26.6667 13.4933V12C26.6667 11.2928 26.3857 10.6145 25.8856 10.1144C25.3855 9.61429 24.7073 9.33334 24 9.33334H21.3333" stroke="white" stroke-width="2" stroke-linecap="round" stroke-linejoin="round"/>
<path d="M21.3333 13.3333V5.33333C21.3333 4.62609 21.0524 3.94781 20.5523 3.44772C20.0522 2.94762 19.3739 2.66667 18.6667 2.66667H13.3333C12.6261 2.66667 11.9478 2.94762 11.4477 3.44772C10.9476 3.94781 10.6667 4.62609 10.6667 5.33333V13.3333M21.3333 13.3333H10.6667M21.3333 13.3333H22.6667M10.6667 13.3333H9.33334M10.6667 18.6667V18.68M10.6667 22.6667V22.68M16 18.6533V18.6667M16 22.6667V22.68" stroke="white" stroke-width="2" stroke-linecap="round" stroke-linejoin="round"/>
</svg>
