<svg width="37" height="37" viewBox="0 0 37 37" fill="none" xmlns="http://www.w3.org/2000/svg">
<path d="M28.1583 7.10371C24.7546 3.7 19.2118 3.7 15.8117 7.10371L6.38105 16.5271C6.31963 16.5886 6.28711 16.6717 6.28711 16.7584C6.28711 16.8451 6.31963 16.9282 6.38105 16.9896L7.71435 18.3229C7.7753 18.3836 7.8578 18.4177 7.9438 18.4177C8.0298 18.4177 8.1123 18.3836 8.17324 18.3229L17.6039 8.89951C18.7746 7.72881 20.3319 7.08564 21.9868 7.08564C23.6417 7.08564 25.199 7.72881 26.3661 8.89951C27.5368 10.0702 28.18 11.6275 28.18 13.2788C28.18 14.9337 27.5368 16.4874 26.3661 17.6581L16.7548 27.2658L15.1975 28.8231C13.7413 30.2793 11.3746 30.2793 9.91846 28.8231C9.21387 28.1186 8.82725 27.1827 8.82725 26.1854C8.82725 25.1882 9.21387 24.2523 9.91846 23.5478L19.4539 14.0159C19.696 13.7774 20.014 13.6437 20.3536 13.6437H20.3572C20.6969 13.6437 21.0112 13.7774 21.2497 14.0159C21.4918 14.258 21.6219 14.576 21.6219 14.9156C21.6219 15.2517 21.4882 15.5696 21.2497 15.8081L13.4559 23.5947C13.3944 23.6562 13.3619 23.7393 13.3619 23.826C13.3619 23.9127 13.3944 23.9958 13.4559 24.0572L14.7892 25.3905C14.8501 25.4512 14.9326 25.4853 15.0186 25.4853C15.1046 25.4853 15.1871 25.4512 15.248 25.3905L23.0383 17.6003C23.7573 16.8812 24.1512 15.9273 24.1512 14.912C24.1512 13.8967 23.7537 12.9392 23.0383 12.2237C21.5532 10.7387 19.1395 10.7423 17.6545 12.2237L16.7295 13.1523L8.12266 21.7556C7.5385 22.3363 7.07545 23.0272 6.76036 23.7883C6.44527 24.5493 6.28441 25.3654 6.28711 26.1891C6.28711 27.862 6.94111 29.4338 8.12266 30.6153C9.34756 31.8366 10.9519 32.4473 12.5562 32.4473C14.1604 32.4473 15.7647 31.8366 16.986 30.6153L28.1583 19.4503C29.8023 17.8026 30.7129 15.6094 30.7129 13.2788C30.7165 10.9446 29.806 8.75137 28.1583 7.10371Z" fill="white"/>
</svg>
