<svg width="22" height="22" viewBox="0 0 22 22" fill="none" xmlns="http://www.w3.org/2000/svg">
<path d="M19.25 8.25H13.75V2.75C13.75 2.02065 13.4603 1.32118 12.9445 0.805456C12.4288 0.289731 11.7293 0 11 0C10.2707 0 9.57118 0.289731 9.05546 0.805456C8.53973 1.32118 8.25 2.02065 8.25 2.75L8.34762 8.25H2.75C2.02065 8.25 1.32118 8.53973 0.805456 9.05546C0.289731 9.57118 0 10.2707 0 11C0 11.7293 0.289731 12.4288 0.805456 12.9445C1.32118 13.4603 2.02065 13.75 2.75 13.75L8.34762 13.6524L8.25 19.25C8.25 19.9793 8.53973 20.6788 9.05546 21.1945C9.57118 21.7103 10.2707 22 11 22C11.7293 22 12.4288 21.7103 12.9445 21.1945C13.4603 20.6788 13.75 19.9793 13.75 19.25V13.6524L19.25 13.75C19.9793 13.75 20.6788 13.4603 21.1945 12.9445C21.7103 12.4288 22 11.7293 22 11C22 10.2707 21.7103 9.57118 21.1945 9.05546C20.6788 8.53973 19.9793 8.25 19.25 8.25Z" fill="white"/>
</svg>
