<svg width="512" height="95" viewBox="0 0 512 95" fill="none" xmlns="http://www.w3.org/2000/svg">
<g clip-path="url(#clip0_1_5)">
<path d="M106.408 7.29614C112.232 7.29614 117.16 8.28814 121.192 10.2721C125.224 12.1921 128.296 14.9441 130.408 18.5281C132.52 22.0481 133.576 26.2401 133.576 31.1041C133.576 33.9841 133.128 36.8961 132.232 39.8401C131.4 42.7201 130.024 45.3442 128.104 47.7122C126.248 50.0802 123.72 52.0001 120.52 53.4721C117.384 54.8801 113.512 55.5841 108.904 55.5841H98.92V77.9521H79V7.29614H106.408ZM108.808 42.0481C110.92 42.0481 112.68 41.6961 114.088 40.9921C115.496 40.2241 116.584 39.2961 117.352 38.2081C118.184 37.0561 118.76 35.8721 119.08 34.6561C119.464 33.4401 119.656 32.3841 119.656 31.4881C119.656 30.7841 119.528 29.8561 119.272 28.7041C119.08 27.4881 118.632 26.2721 117.928 25.0561C117.224 23.8401 116.136 22.8161 114.664 21.9841C113.256 21.1521 111.336 20.7361 108.904 20.7361H98.92V42.0481H108.808Z" fill="#0F0F0F"/>
<path d="M151.72 75.9361C147.816 75.9361 144.264 75.1681 141.064 73.6321C137.928 72.0321 135.432 69.6001 133.576 66.3361C131.72 63.0721 130.792 58.9121 130.792 53.8561C130.792 49.1201 131.752 45.0241 133.672 41.5681C135.592 38.1121 138.12 35.4561 141.256 33.6001C144.392 31.6801 147.72 30.7201 151.24 30.7201C155.4 30.7201 158.536 31.4241 160.648 32.8321C162.824 34.1761 164.616 35.6801 166.024 37.3441L165.448 38.9761L166.696 32.8321H182.613V74.7841H165.736V65.6641L166.792 68.5441C166.664 68.5441 166.28 68.9281 165.64 69.6961C165 70.4001 164.04 71.2641 162.76 72.2881C161.544 73.2481 160.008 74.0801 158.152 74.7841C156.36 75.5521 154.216 75.9361 151.72 75.9361ZM155.56 64.9921C157.16 64.9921 158.6 64.7681 159.88 64.3201C161.16 63.8081 162.28 63.1041 163.24 62.2081C164.2 61.2481 165.032 60.0641 165.736 58.6561V48.3841C165.224 46.9761 164.456 45.7921 163.432 44.8321C162.408 43.8081 161.192 43.0401 159.784 42.5281C158.376 41.9521 156.808 41.6641 155.08 41.6641C153.16 41.6641 151.368 42.1761 149.704 43.2001C148.104 44.1601 146.824 45.5041 145.864 47.2321C144.904 48.9601 144.424 50.9441 144.424 53.1841C144.424 55.4241 144.936 57.4401 145.96 59.2321C146.984 61.0241 148.328 62.4321 149.992 63.4561C151.72 64.4801 153.576 64.9921 155.56 64.9921Z" fill="#0F0F0F"/>
<path d="M191.925 94.9441L219.861 32.8321L234.653 33.2161L208.153 94.9441H191.925ZM203.157 74.9761L182.613 32.8321H197.685L213.525 68.2561L203.157 74.9761Z" fill="#0F0F0F"/>
<path d="M294.091 69.2161C293.323 69.8561 291.883 70.7201 289.771 71.8081C287.723 72.8961 285.195 73.8561 282.187 74.6881C279.179 75.5201 275.851 75.9041 272.203 75.8401C266.635 75.7121 261.643 74.7201 257.227 72.8641C252.875 70.9441 249.163 68.3521 246.091 65.0881C243.083 61.8241 240.779 58.0801 239.179 53.8561C237.579 49.6321 236.779 45.1201 236.779 40.3201C236.779 34.9441 237.579 30.0161 239.179 25.5361C240.843 21.0561 243.179 17.1841 246.187 13.9201C249.259 10.6561 252.907 8.12814 257.131 6.33614C261.355 4.54414 266.027 3.64814 271.147 3.64814C275.883 3.64814 280.075 4.28814 283.723 5.56814C287.371 6.84814 290.347 8.22414 292.651 9.69614L287.179 22.8481C285.579 21.6321 283.435 20.3841 280.747 19.1041C278.123 17.7601 275.083 17.0881 271.627 17.0881C268.939 17.0881 266.347 17.6641 263.851 18.8161C261.419 19.9041 259.243 21.4721 257.323 23.5201C255.467 25.5681 253.995 27.9681 252.907 30.7201C251.819 33.4081 251.275 36.3521 251.275 39.5521C251.275 42.9441 251.755 46.0481 252.715 48.8641C253.739 51.6801 255.179 54.1121 257.035 56.1601C258.891 58.1441 261.099 59.6801 263.659 60.7681C266.283 61.8561 269.227 62.4001 272.491 62.4001C276.267 62.4001 279.499 61.7921 282.187 60.5761C284.875 59.3601 286.923 58.0801 288.331 56.7361L294.091 69.2161Z" fill="#0F0F0F"/>
<path d="M299.323 76.032V0.288002L317.605 0V42.24L317.509 40.608C318.981 37.984 321.061 35.872 323.749 34.272C326.437 32.608 329.733 31.776 333.637 31.776C337.605 31.776 340.901 32.96 343.525 35.328C346.213 37.632 347.589 40.64 347.653 44.352V75.744H334.213V49.344C334.149 47.488 333.637 46.016 332.677 44.928C331.781 43.776 330.245 43.2 328.069 43.2C326.021 43.2 324.229 43.872 322.693 45.216C321.157 46.56 319.973 48.384 319.141 50.688C318.309 52.992 317.893 55.648 317.893 58.656V75.744L299.323 76.032Z" fill="#0F0F0F"/>
<path d="M373.793 77.9521C368.673 77.9521 364.321 76.9921 360.737 75.0722C357.217 73.1522 354.529 70.4961 352.673 67.1041C350.817 63.7121 349.889 59.8081 349.889 55.3921C349.889 51.1681 350.977 47.3601 353.153 43.9681C355.329 40.5761 358.241 37.8881 361.889 35.9041C365.537 33.8561 369.601 32.8321 374.081 32.8321C380.097 32.8321 385.025 34.5921 388.865 38.1121C392.769 41.5681 395.297 46.5921 396.449 53.1841L363.809 63.5521L360.833 56.2561L384.449 48.2881L381.665 49.5361C381.153 47.8721 380.225 46.4321 378.881 45.2161C377.601 43.9361 375.649 43.2961 373.025 43.2961C371.041 43.2961 369.281 43.7761 367.745 44.7361C366.273 45.6321 365.121 46.9441 364.289 48.6721C363.521 50.3361 363.137 52.3201 363.137 54.6241C363.137 57.2481 363.617 59.4561 364.577 61.2481C365.537 62.9761 366.849 64.2881 368.513 65.1842C370.177 66.0802 372.033 66.5281 374.081 66.5281C375.553 66.5281 376.961 66.2721 378.305 65.7601C379.713 65.2481 381.089 64.5761 382.433 63.7441L388.385 73.7281C386.145 75.0081 383.713 76.0322 381.089 76.8001C378.529 77.5681 376.097 77.9521 373.793 77.9521Z" fill="#0F0F0F"/>
<path d="M434.533 73.0561C432.677 74.5281 430.341 75.7121 427.525 76.6081C424.773 77.5042 422.053 77.9521 419.365 77.9521C414.565 77.9521 410.373 77.0881 406.789 75.3601C403.269 73.5681 400.517 71.0401 398.533 67.7761C396.613 64.4481 395.653 60.4481 395.653 55.7761C395.653 51.1041 396.709 47.1361 398.821 43.8721C400.933 40.5441 403.685 38.0161 407.077 36.2881C410.533 34.5601 414.149 33.6961 417.925 33.6961C421.701 33.6961 424.965 34.2081 427.717 35.2321C430.533 36.2561 432.933 37.6001 434.917 39.2641L428.389 47.9041C427.493 47.2001 426.245 46.4961 424.645 45.7921C423.109 45.0241 421.285 44.6401 419.173 44.6401C417.317 44.6401 415.621 45.1201 414.085 46.0801C412.549 47.0401 411.333 48.3521 410.437 50.0161C409.541 51.6801 409.093 53.6001 409.093 55.7761C409.093 57.8241 409.573 59.7121 410.533 61.4401C411.493 63.1681 412.805 64.5441 414.469 65.5681C416.197 66.5281 418.213 67.0081 420.517 67.0081C421.989 67.0081 423.333 66.8161 424.549 66.4321C425.829 65.9841 426.917 65.3761 427.813 64.6081L434.533 73.0561Z" fill="#0F0F0F"/>
<path d="M437.457 77.9521L443.087 1.82412H456.527V77.5681L437.457 77.9521ZM467.183 49.0561L486.191 77.5681H470.543L458.351 56.7361L467.183 49.0561ZM452.495 65.9521L451.151 53.1841L475.457 30.0481L484.655 41.7601L452.495 65.9521Z" fill="#0F0F0F"/>
<path d="M488.351 1.91988L511.153 2.20788L505.718 57.5041H493.718L488.351 1.91988ZM500.054 77.9521C497.75 77.9521 495.862 77.3441 494.39 76.1281C492.918 74.8481 492.182 73.1841 492.182 71.1361C492.182 69.1521 492.918 67.4881 494.39 66.1441C495.926 64.8001 497.814 64.1281 500.054 64.1281C502.294 64.1281 504.118 64.8001 505.526 66.1441C506.998 67.4881 507.734 69.1521 507.734 71.1361C507.734 73.1841 507.03 74.8481 505.622 76.1281C504.214 77.3441 502.358 77.9521 500.054 77.9521Z" fill="#0F0F0F"/>
<path d="M70 78H0C1.68988e-06 39.3401 31.3401 8.00001 70 8.00001V78Z" fill="black"/>
<path d="M21.8872 78H70V28.7813C43.4213 28.7813 21.875 50.3276 21.875 76.9063C21.875 77.2718 21.8791 77.6364 21.8872 78Z" fill="white"/>
<path d="M43.8481 78H70V51.8481C69.2795 51.7832 68.5499 51.75 67.8125 51.75C54.5231 51.75 43.75 62.5232 43.75 75.8125C43.75 76.5499 43.7832 77.2795 43.8481 78Z" fill="black"/>
</g>
<defs>
<clipPath id="clip0_1_5">
<rect width="512" height="95" fill="white"/>
</clipPath>
</defs>
</svg>
